<svg width="391" height="780" viewBox="0 0 391 780" fill="none" xmlns="http://www.w3.org/2000/svg">
<path fill-rule="evenodd" clip-rule="evenodd" d="M102.843 712.828C101.172 705.064 108.816 702.439 113.635 700.712C117.086 698.477 129.876 690.739 139.772 681.187C147.869 673.37 153.382 663.352 155.676 662.397C155.676 662.397 158.038 661.03 158.284 660.014C159.721 654.062 158.522 648.515 158.284 644.906C153.677 643.699 149.985 642.193 147.224 640.088C146.419 640.356 145.212 640.698 144.853 639.523C142.358 622.91 141.281 606.493 139.25 589.866C131.566 526.542 130.699 452.563 143.919 394.725C144.058 391.858 143.808 389.269 143.551 386.806C141.764 386.613 140.683 384.886 139.223 383.854C136.958 382.057 134.276 380.676 134.386 377.536C133.848 377.129 133.911 376.901 134.176 376.383C132.448 368.967 140.156 361.152 142.336 355.038C138.373 316.359 143.765 279.809 140.757 241.121C136.958 239.534 139.512 229.618 139.772 225.528C141.876 199.179 155.601 173.127 180.316 164.519C181.729 164.234 183.853 162.622 185.022 163.704C187.281 162.811 190.288 164.572 192.036 162.544L192.019 162.531C193.491 160.493 194.151 157.903 194.635 155.454C194.554 156.144 194.419 156.829 194.253 157.498C198.513 145.514 199.587 142.309 213.303 141.745C219.482 141.662 227.627 141.847 231.23 147.729C232.706 150.463 232.255 153.602 233.171 156.479C234.853 161.76 242.113 159.208 245.925 161.951C276.43 171.715 301.451 191.646 309.676 223.636C311.357 227.491 313.264 231.329 314.67 235.308C314.888 235.898 315.486 237.897 314.049 238.817L313.354 239.262C322.51 281.971 323.117 317.96 292.356 346.433C290.048 358.667 295.986 375.375 293.703 387.254C295.004 389.096 293.355 390.579 291.692 390.698C291.531 390.787 290.884 391.07 290.707 391.15C293.353 428.434 282.243 478.682 277.345 498.514C276.678 510.422 280.751 520.203 289.128 526.693C298.384 532.382 316.682 558.077 313.29 585.03C317.254 585.806 321.19 586.231 324.993 587.718C341.635 584.787 341.47 616.805 342.53 628.062C344.326 646.912 345.442 674.232 327.499 686.298C322.772 689.72 313.188 693.727 308.276 688.249C306.667 686.32 306.264 684.456 306.897 682.485C298.787 671.05 300.972 656.092 300.227 642.679C297.876 642.538 295.415 643.639 293.14 643.238C290.805 641.184 299.323 641.744 300.207 641.624C300.116 639.555 299.95 637.377 299.734 635.292C298.398 635.559 296.687 636.199 295.402 636.248C294.641 636.433 294.104 635.388 294.563 634.846C295.566 633.892 298.122 634.04 299.561 633.904C299.318 632.159 299.021 630.323 298.691 628.635C296.931 628.572 295.113 629.691 293.447 629.462C294.708 628.622 297.076 628.878 298.613 628.323C297.613 622.886 295.576 617.724 293.682 612.639C289.035 614.552 285.026 614.627 280.489 614.054C278.633 614.339 277.729 613.96 277.428 611.643L277.547 611.497C273.951 590.023 262.348 569.552 240.795 546.337C236.537 541.582 231.727 535.983 228.521 529.724C222.08 516.697 220.98 502.323 216.017 488.795C211.384 475.197 205.049 462.19 199.1 449.3C198.228 455.906 197.056 462.683 195.838 469.161C190.477 492.116 190.997 516.608 194.942 539.69C200.779 572.019 197.966 604.501 199.264 637.059C199.246 638.937 199.013 640.643 199.289 642.598C199.326 642.748 199.254 642.926 199.076 642.922L198.739 642.931C195.933 644.981 192.058 645.352 188.761 646.464C187.377 647.558 187.767 649.29 187.64 650.641C187.278 656.465 186.815 662.31 187.389 668.313C189.933 673.178 193.093 672.173 193.739 679.03C194.305 686.859 195.305 695.184 191.485 702.155L192.93 702.404C195.075 706.896 193.766 709.813 188.724 711.713C163.836 721.452 128.814 730.294 102.843 722.943C102.371 723.41 101.684 722.925 101.148 722.191C100.632 721.485 100.254 720.549 100.338 720.006C100.782 717.622 100.172 713.268 102.843 712.828Z" fill="white"/>
<path fill-rule="evenodd" clip-rule="evenodd" d="M101.776 720.626C124.141 730.648 164.751 718.002 186.726 710.685C192.651 708.552 194.625 708.134 192.965 701.317C189.859 707.299 183.178 708.744 176.778 709.944C155.097 714.876 132.994 723.983 109.808 719.539C106.405 719.005 103.037 717.166 102.047 713.772C101.436 715.21 101.814 717.158 101.57 718.74C101.524 719.37 101.51 720.052 101.776 720.626ZM192.229 683.347C191.825 679.328 191.179 675.084 188.887 671.534C189.137 677.276 185.681 687.036 178.11 683.785C175.965 682.65 174.764 680.366 173.384 678.532C168.798 672.498 162.918 667.258 156.275 663.45C152.58 664.084 150.991 670.828 148.609 673.651C151.264 674.832 156.076 677.523 156.562 680.305C153.247 679.192 150.196 677.12 146.718 676.391C145.605 677.925 144.424 679.413 143.185 680.85C144.805 681.562 151.335 684.857 151.292 686.501C147.761 685.929 144.339 684.203 140.789 683.494C139.209 685.057 137.772 686.74 136.2 688.308C138.575 689.284 141.083 690.374 142.38 692.65C142.441 692.753 142.29 692.867 142.206 692.768C140.427 690.628 137.366 690.235 134.713 689.753C130.643 693.578 126.085 696.953 120.984 699.477C115.881 702.262 108.124 702.899 106.094 708.941C104.469 714.981 109.535 715.626 114.209 716.052C118.937 716.724 123.699 716.825 128.396 716.433C143.08 715.823 156.962 711.508 170.838 707.739C187.804 704.622 193.309 702.099 192.229 683.347ZM159.842 661.515C166.342 666.312 172.688 671.658 177.203 678.35C180.19 683.794 184.166 680.48 185.154 676.119C185.954 666.381 185.266 657.972 186.203 648.177C177.214 649.4 167.981 648.646 159.201 646.482C160.258 650.855 160.742 652.515 160.776 657.001C160.718 658.479 160.74 660.284 159.842 661.515ZM192.288 376.543C193.152 376.858 193.521 375.483 192.667 375.172C192.08 374.958 191.487 374.767 190.89 374.587C190.816 374.427 190.683 374.291 190.478 374.216C183.482 371.672 175.665 371.92 168.357 372.528C164.429 372.855 160.509 373.294 156.628 373.984C152.912 374.644 149.225 375.455 145.508 376.103C144.749 376.199 143.99 376.29 143.232 376.375C142.329 376.476 142.322 377.899 143.232 377.797C143.399 377.778 143.566 377.756 143.733 377.737C143.844 377.776 143.967 377.793 144.105 377.772C144.684 377.68 145.261 377.583 145.838 377.483C148.375 377.159 150.906 376.786 153.437 376.416C160.094 375.442 166.773 374.469 173.505 374.217C179.832 373.979 186.293 374.36 192.288 376.543ZM144.358 241.517C145.904 262.791 145.505 281.795 145.172 303.102C144.98 317.434 144.89 331.771 145.389 346.098C158.03 313.49 154.161 278.107 155.957 243.833C152.221 242.591 148.208 242.048 144.358 241.517ZM208.884 398.812C207.701 401.065 205.716 402.879 203.362 404.012C203.652 404.58 203.752 405.22 203.783 405.82C208.022 406.685 206.83 408.692 209.693 409.65C211.567 410.167 213.37 410.387 214.99 411.52C220.502 416.644 221.87 416.267 227.786 411.759C227.705 411.352 235.756 403.504 238.249 399.117C240.327 395.458 242.503 391.772 245.688 388.942C261.284 373.006 277.898 357.965 292.995 341.588C323.251 311.499 317.478 277.382 310.529 239.799C299.313 241.136 288.034 243.821 277.934 248.751C281.496 265.339 281.724 280.375 283.258 297.208C283.722 299.289 283.199 303.296 280.244 302.372C253.088 323.89 249.932 368.109 214.294 380.896C199.769 386.788 205.899 391.571 201.099 402.696C203.74 402.213 206.096 400.004 207.231 397.89C207.794 396.84 209.432 397.764 208.884 398.812ZM275.921 385.442C276.795 385.544 277.672 385.619 278.549 385.69C278.65 385.773 278.777 385.832 278.931 385.852C280.297 386.022 281.691 386.245 283.072 386.546C285.12 387.271 287.19 387.933 289.251 388.622C289.431 388.711 289.611 388.801 289.788 388.895C289.958 388.984 290.123 388.999 290.272 388.965C290.332 388.986 290.392 389.005 290.452 389.026C290.468 389.031 290.484 389.037 290.499 389.042C290.553 389.04 290.608 389.038 290.664 389.036C290.745 389.033 290.884 389.026 291.049 389.016C291.053 388.953 291.052 388.891 291.054 388.829C291.635 388.846 292.157 388.12 291.609 387.641C289.603 385.885 286.907 385.243 284.33 384.855C281.541 384.434 278.72 384.347 275.921 384.02C275.011 383.914 275.022 385.337 275.921 385.442ZM301.545 627.145C304.043 626.953 314.728 626.585 316.01 628.259C314.566 628.868 312.581 628.531 311.028 628.6C308.012 628.723 305.003 628.989 302.017 629.41C302.241 630.572 302.443 631.731 302.609 632.894C305.62 633.181 311.484 633.312 313.396 635.414C309.985 635.957 306.435 635.468 303.013 636.146C303.179 637.739 303.3 639.334 303.39 640.929C304.754 641.074 312.771 642.399 312.764 643.657C309.762 644.055 306.582 643.531 303.523 643.828C304.186 653.386 301.939 682.252 315.03 684.018C326.474 683.416 331.495 664.905 333.05 656.024C336.499 635.333 335.907 613.272 329.072 593.328C326.631 587.782 319.986 586.82 314.367 586.533C314.153 587.471 313.942 588.393 313.705 589.323C316.141 594.835 316.918 601.043 316.984 607.008C316.469 615.583 305.867 621.959 298.168 616.294C299.607 619.802 300.718 623.452 301.545 627.145ZM316.69 688.831C339.358 683.968 343.077 657.769 341.519 638.504C340.249 625.094 341.776 596.822 329.372 588.943C345.402 603.548 344.01 702.974 308.485 685.62C309.37 688.421 313.925 689.229 316.69 688.831ZM312.249 595.355C312.208 595.008 312.163 594.665 312.116 594.319C309.601 601.138 305.293 607.617 298.878 611.566C301.334 614.623 306.117 615.533 309.344 613.031C314.973 608.819 312.626 601.199 312.249 595.355ZM234.979 159.744C235.024 159.822 235.072 159.901 235.119 159.976C235.433 159.998 235.749 160.026 236.069 160.062C235.706 159.953 235.342 159.851 234.979 159.744ZM99.5744 716.476C99.6361 714.78 99.6601 712.589 101.65 711.987C100.748 704.678 106.828 700.517 113.211 698.492C118.654 695.169 124.827 692.847 129.828 688.841C127.506 688.406 125.183 687.88 123.119 686.871C121.561 686.111 122.312 683.578 124 683.812C126.99 684.206 129.676 685.723 132.486 686.777C134.082 685.469 135.628 684.103 137.088 682.657C135.269 682.306 132.956 682.435 131.897 680.633C131.567 680.069 131.714 679.485 132.113 679.049C133.956 677.188 137.609 679.047 139.898 679.589C140.997 678.325 142.059 677.034 143.102 675.729C141.372 675.57 136.875 675.885 137.756 673.037C139.444 670.81 143.075 672.146 145.517 672.605C148.614 668.804 149.611 662.974 154.451 660.883C154.625 659.961 155.831 660.032 156.636 660.306C157.821 654.659 157.731 651.789 157.384 646.001C153.791 645.008 150.226 643.704 147.239 641.567C145.866 641.97 144.201 641.505 143.916 639.896C141.432 623.414 140.328 606.729 138.307 590.188C130.937 529.274 129.332 454.924 142.973 394.744C143.08 392.464 142.919 390.182 142.688 387.919C141.062 387.485 140.093 385.899 138.746 384.982C136.243 382.946 133.697 381.806 133.466 378.253C132.961 377.772 132.901 377.044 133.179 376.414C132.531 372.766 133.486 369.145 135.431 365.993C137.563 362.402 139.577 358.778 141.356 355.01C137.466 317.026 142.743 280.214 139.858 242.041C136.157 240.086 138.48 229.221 138.824 225.6C140.986 201.816 152.112 175.555 175.768 165.662C177.428 164.264 179.746 163.79 181.774 163.02C183.145 162.347 185.375 161.764 186.313 163.33C187.308 162.868 190.512 162.515 191.609 161.714C191.813 161.564 191.944 161.401 191.975 161.218C192.055 161.221 192.15 161.204 192.252 161.183C193.264 159.756 194.228 149.818 195.475 150.527C196.836 153.94 195.893 157.796 194.591 161.242C193.694 164.29 192.464 172.13 187.695 170.125C186.873 169.718 187.382 168.658 188.118 168.573C190.378 167.928 190.882 164.612 191.756 162.669C190.721 163.527 186.004 164.814 185.489 165.086C175.257 188.522 237.117 187.292 241.98 171.135C245.448 165.553 242.455 162.529 236.273 161.633C240.817 166.672 235.064 167.791 232.877 162.849C230.785 159.31 229.833 155.011 230.548 150.939C230.18 149.51 229.868 147.6 232.011 147.984C232.084 147.794 232.201 147.943 232.155 148.079C232.937 149.321 232.393 151.105 232.671 152.539C232.906 154.886 233.573 157.185 234.706 159.261C236.808 159.661 238.9 160.09 240.983 160.56C242.232 158.026 250.335 163.079 252.511 163.674C281.411 172.194 303.388 194.886 311.059 223.507C312.771 227.318 314.619 231.148 316.02 235.078C316.647 236.78 316.647 238.891 314.925 239.993C323.316 278.406 325.363 318.427 293.665 347.238C292.946 350.357 293.425 353.666 293.446 356.842C293.239 362.489 296.967 378.837 295.188 387.261C295.382 387.629 295.518 388.023 295.572 388.445C295.82 390.403 294.224 391.664 292.463 391.985C292.41 391.995 292.355 392.004 292.3 392.014C292.26 392.033 292.222 392.055 292.181 392.073C294.283 424.188 286.4 467.886 278.76 498.868C278.195 509.516 281.413 519.203 290.074 525.922C306.542 538.209 313.479 558.717 315.405 578.261C315.678 580.264 315.41 582.302 314.958 584.269C318.528 584.933 321.869 585.364 325.334 586.67C344.445 583.016 343.082 623.992 344.545 636.151C345.69 654.126 344.975 675.672 328.424 687.442C322.86 691.396 313.037 695.193 307.615 689.206C306.081 687.374 305.245 685.231 305.848 682.889C298.075 671.529 299.911 657.01 299.329 644.084C297.294 644.155 295.076 645.06 293.071 644.562C291.528 644.155 291.33 642.178 292.637 641.391C294.523 640.325 297.085 640.73 299.194 640.659C299.13 639.422 299.037 638.185 298.918 636.947C296.916 637.436 294.048 638.609 293.451 635.817C293.211 633.274 296.43 633.079 298.434 632.97C298.294 632.01 298.137 631.055 297.959 630.102C296.425 630.257 294.805 631.233 293.297 630.766C292.442 630.43 292.145 629.567 292.77 628.868C293.931 627.732 295.917 627.96 297.453 627.607C296.52 623.044 294.833 618.681 293.209 614.318C290.269 615.337 287.084 616.01 283.947 615.754C282.32 615.413 280.544 615.315 278.9 615.536C277.072 615.052 276.649 613.102 276.409 611.509C276.445 611.452 276.48 611.398 276.521 611.348C272.296 586.794 257.139 565.581 240.145 547.305C235.464 542.077 230.873 536.64 227.693 530.43C221.233 517.452 220.074 502.849 215.132 489.366C210.969 477.122 205.405 465.38 199.949 453.622C197.762 469.109 193.677 484.341 193.209 500.046C192.497 519.914 196.883 539.494 198.755 559.203C202.12 585.144 199.063 611.246 200.688 637.206C200.676 639.042 200.438 640.773 200.7 642.609C200.845 643.626 200.113 644.264 199.344 644.285C196.518 646.136 192.967 646.793 189.718 647.584C188.818 648.272 189.208 649.964 189.048 651C188.7 656.818 188.239 661.209 188.806 667.076C191.984 671.765 194.273 671.016 195.157 678.143C195.644 685.584 196.715 693.63 193.457 700.384C194.915 700.715 195.468 705.156 195.25 706.331C194.879 709.646 191.951 710.694 189.12 711.838C168.432 719.574 124.475 732.309 103.217 723.551C101.695 724.411 99.9973 722.725 99.5055 721.369C98.855 719.717 99.4535 718.117 99.5744 716.476Z" fill="black"/>
<path fill-rule="evenodd" clip-rule="evenodd" d="M208.572 60.4991C195.087 60.4991 177.681 68.9409 176.197 77.5869C174.447 87.776 165.081 126.873 167.196 139.41C169.311 151.948 180.709 160.973 198.948 160.973C217.186 160.973 230.8 151.047 233.925 147.639C237.051 144.231 242.844 132.062 242.844 132.062C242.844 132.062 252.609 130.766 252.656 122.822C252.702 114.878 246.306 111.987 246.306 111.987C246.306 111.987 248.587 80.6358 242.844 72.4734C237.101 64.3109 222.057 60.4991 208.572 60.4991Z" fill="white"/>
<path fill-rule="evenodd" clip-rule="evenodd" d="M177.022 76.1918C177.032 76.0096 176.766 75.9882 176.716 76.1494C173.806 85.7412 172.013 93.2163 170.125 103.05L169.568 105.943C168.078 113.658 166.573 121.385 165.302 129.138L165.227 129.601C164.59 133.614 164.223 137.666 165.021 141.687C165.767 145.446 167.805 148.893 170.45 151.637C175.564 156.942 182.67 160.255 189.818 161.736C193.432 162.485 197.161 162.774 200.844 162.514C202.68 162.385 204.514 162.127 206.311 161.746L206.51 161.703C208.322 161.313 209.93 160.847 210.893 159.145C211.135 158.717 211.037 157.982 210.529 157.761C209.57 157.349 208.864 157.176 207.817 157.295C206.818 157.408 205.841 157.709 204.853 157.897C202.965 158.254 201.046 158.434 199.125 158.477C195.351 158.56 191.568 158.089 187.961 156.965C181.762 155.033 175.464 151.338 171.842 145.811C167.582 139.31 169.278 131.419 170.407 124.238L170.441 124.021C171.584 116.681 172.714 109.342 173.811 101.998L174.279 98.8502C175.509 90.5336 176.67 84.5965 177.022 76.1918ZM239.954 55.8353C236.861 53.8003 233.016 53.3003 229.383 53.3284L228.928 53.3341C224.275 53.4049 200.855 53.9611 193.013 54.1322L191.148 54.1715C188.679 54.2179 183.699 54.2665 181.134 54.3133L180.986 54.316C179.727 54.3397 178.468 54.3492 177.21 54.3895L177.025 54.3961C176.082 54.4363 175.298 54.5771 174.559 55.2404C174.184 55.5765 174.037 56.0892 174.072 56.5776L174.077 56.6411L172.208 56.8046C170.939 56.9166 170.268 58.0526 170.772 59.2021L170.797 59.2577C171.693 61.1633 172.377 66.7093 172.856 68.7594C173.108 69.8378 173.31 70.9328 173.429 72.0349C173.524 72.9026 173.533 73.7722 174.018 74.5354C175.051 76.1636 177.958 76.1494 178.01 73.8433C178.012 73.7698 178.01 73.6987 178.003 73.63C185.317 73.31 195.304 73.3408 202.609 73.7769C209.432 74.1846 216.224 75.1089 222.91 76.5239C224.603 76.8818 226.291 77.2728 227.968 77.6971C229.343 78.0431 231.032 78.2493 232.262 78.9911C233.639 79.8254 233.613 81.321 233.464 82.7454C233.303 84.2551 233.035 83.4773 232.656 84.8531L232.632 84.9401C232.241 86.4333 231.756 87.9098 231.115 89.3129C230.749 90.114 230.16 90.8843 230.383 91.8063C230.509 92.3253 230.92 92.8799 231.298 93.2426C233.017 94.8898 235.924 93.8398 237.092 96.0962C238.315 98.4555 238.346 101.652 238.449 104.262L238.456 104.415C238.531 106.214 238.51 108.018 238.392 109.812C238.285 111.447 237.848 113.066 238.408 114.637C238.817 115.78 240.151 115.886 240.85 114.957C240.93 114.851 241.003 114.741 241.072 114.631L241.139 114.521L241.144 114.524C241.078 114.628 241.016 114.735 240.956 114.844C240.892 114.965 241.051 115.097 241.149 114.993C242.792 113.208 245.193 113.564 247.053 114.813C248.936 116.083 249.679 118.496 249.777 120.66C249.886 123.061 249.672 125.874 248.67 128.093C248.247 129.031 247.644 129.894 246.644 130.252C246.19 130.413 245.758 130.392 245.286 130.429C244.794 130.467 244.203 130.714 243.726 130.681C243.105 130.637 242.549 131.343 242.725 131.935L242.738 131.975C242.747 132.003 242.757 132.032 242.766 132.058C242.742 132.079 242.719 132.105 242.702 132.143C240.897 135.824 238.422 139.099 235.687 142.138C234.316 143.657 232.796 145.053 231.207 146.345C230.424 146.982 229.597 147.62 228.726 148.134C228.436 148.302 228.17 148.416 227.844 148.509C227.693 148.551 227.519 148.573 227.372 148.622L227.219 148.675C227.209 148.678 227.199 148.681 227.189 148.684C226.752 148.734 226.384 149.023 226.239 149.476C225.862 150.656 226.548 151.699 227.721 152.023C228.992 152.378 230.19 151.755 231.198 151.04L231.264 150.992C233.319 149.516 235.212 147.859 236.85 145.925C240.092 142.107 242.123 137.687 243.063 132.797C243.296 133.297 243.609 133.733 244.153 134.037C244.998 134.511 246.008 134.511 246.934 134.352C248.798 134.037 250.387 132.901 251.449 131.366C252.551 129.773 252.962 127.839 253.211 125.955C253.458 124.068 253.579 122.174 253.332 120.283C252.978 117.567 251.836 114.882 249.615 113.393C251.278 109.779 251.57 105.726 251.451 101.768C251.306 96.8949 250.463 91.9674 249.815 87.1395L247.972 73.4143L247.896 72.861C247.451 69.6321 246.91 66.3861 245.699 63.3437C244.505 60.3456 242.69 57.6342 239.954 55.8353ZM247.711 120.766C244.666 119.292 241.377 120.65 239.738 123.511C238.313 125.998 242.55 127.642 243.256 125.078L243.277 124.999C243.742 123.058 245.638 121.38 247.616 121.12C247.779 121.096 247.901 120.859 247.711 120.766Z" fill="black"/>
<path fill-rule="evenodd" clip-rule="evenodd" d="M183.033 138.846C183.816 139.868 185.235 140.652 186.824 141.026C188.339 141.383 190.012 141.369 191.457 140.819L191.581 140.77C192.661 140.322 193.697 139.419 194.091 138.475C194.247 138.1 194.3 137.719 194.193 137.364C194.097 137.044 193.871 136.749 193.495 136.496C193.377 136.417 193.218 136.411 193.067 136.438C192.88 136.471 192.695 136.558 192.584 136.676C191.966 137.332 191.07 137.971 190.009 137.96C189.19 137.952 188.521 137.629 187.873 137.265L187.417 137.004C186.978 136.754 186.532 136.519 186.027 136.411C185.124 136.219 184.029 136.571 183.362 137.151C183.071 137.404 182.86 137.701 182.802 138.021C182.754 138.29 182.822 138.571 183.033 138.846ZM187.727 120.962C185.934 122.05 183.201 124.587 185.13 127.284C187.401 129.662 190.671 126.935 192.282 125.702C193.776 124.746 195.455 127.204 194.068 128.32C182.426 136.923 177.701 121.247 186.82 119.683C187.824 119.511 188.197 120.626 187.727 120.962ZM207.959 104.242L207.444 104.101L206.918 103.96L206.563 103.866C204.123 103.228 201.432 102.667 199.012 102.941C198.129 103.041 197.413 103.537 197.288 104.46C197.183 105.238 197.687 106.243 198.545 106.381C201.387 106.84 204.297 106.691 207.152 107.164C208.574 107.4 209.984 107.692 211.401 107.955C212.478 108.156 213.591 108.226 214.677 108.388L214.427 108.423C214.34 108.435 214.362 108.581 214.448 108.575C214.806 108.54 215.165 108.534 215.524 108.559L215.678 108.572C215.912 108.605 216.05 108.326 215.841 108.184C214.518 107.288 213.395 106.316 211.913 105.656C210.631 105.085 209.312 104.614 207.959 104.242ZM185.744 102.868C183.868 100.975 179.878 101.702 177.646 102.568C176.373 103.063 175.161 103.688 174.153 104.623L174.054 104.715L173.903 104.86C173.222 105.525 172.462 106.441 172.57 107.4C172.587 107.546 172.667 107.713 172.832 107.743C173.726 107.901 174.604 107.43 175.43 107.147L175.976 106.96C176.797 106.681 177.623 106.414 178.47 106.221C179.522 105.982 180.596 105.844 181.677 105.858C182.769 105.872 183.942 106.18 184.983 105.747C186.143 105.265 186.744 103.877 185.744 102.868ZM204.28 118.133C204.758 118.621 205.39 118.896 206.2 118.732C206.832 118.604 208.036 117.97 208.997 116.993C209.655 116.325 210.205 115.489 210.355 114.522C210.39 114.297 210.509 114.153 210.666 114.062C210.79 113.991 210.953 113.955 211.131 113.973C211.282 113.988 211.443 114.042 211.567 114.115C211.802 114.252 211.899 114.448 211.918 114.594C212.108 116.003 211.562 117.4 210.712 118.579C209.565 120.169 207.881 121.335 206.891 121.608C205.197 122.075 203.412 121.703 202.096 120.526C201.043 119.585 200.504 118.359 200.003 117.099L199.906 116.855C199.794 116.569 199.682 116.285 199.564 116.004C199.326 115.441 199.402 114.954 199.633 114.575C199.887 114.155 200.358 113.859 200.881 113.768C201.365 113.684 201.883 113.776 202.292 114.071C202.638 114.32 202.916 114.715 203.015 115.299C203.176 116.249 203.55 117.338 204.208 118.057L204.28 118.133ZM175.229 112.637C175.623 112.432 175.932 112.37 176.37 112.501C176.612 112.573 176.852 112.712 177.039 112.899C177.225 113.085 177.359 113.315 177.411 113.571C177.539 114.202 177.885 114.792 178.378 115.177C178.799 115.507 179.331 115.681 179.921 115.583C180.558 115.477 181.164 115.069 181.582 114.589C181.698 114.455 181.793 114.306 181.886 114.155L181.941 114.064C182.147 113.725 182.347 113.41 182.631 113.161C182.738 113.066 182.9 113 183.057 113C183.121 113 183.186 113.011 183.248 113.03C183.881 113.665 184.003 114.146 183.983 114.624C183.961 115.124 183.763 115.631 183.444 116.104C182.694 117.214 181.27 118.124 180.309 118.33C178.993 118.612 177.687 118.273 176.639 117.54C175.561 116.785 174.762 115.614 174.513 114.293C174.453 113.975 174.479 113.632 174.6 113.334C174.719 113.044 174.925 112.795 175.229 112.637Z" fill="black"/>
<path fill-rule="evenodd" clip-rule="evenodd" d="M153.488 118.742C153.992 117.986 155.419 118.446 155.051 119.399C151.056 128.446 152.904 135.483 164.133 134.252C170.902 133.813 177.476 127.839 184.275 130.812C186.028 132.217 187.182 132.391 189.034 130.871C196.383 127.661 204.705 133.382 212.089 134.155C223.641 135.289 229.925 131.432 224.089 119.605C223.723 118.801 224.785 117.742 225.436 118.567C233.494 127.925 233.899 140.489 220.928 145.337C211.408 148.501 193.202 151.119 186.668 141.581C182.497 148.468 173.583 148.88 166.417 147.648C149.114 146.054 143.813 132.637 153.488 118.742Z" fill="black"/>
<path fill-rule="evenodd" clip-rule="evenodd" d="M174.666 103.336C169.092 103.336 165.911 104.533 164.745 104.626L164.71 104.628C164.225 104.659 163.79 104.7 163.334 104.876C161.656 105.521 161.383 107.277 162.362 108.384C162.431 110.675 162.129 113.351 162.647 115.648C163.285 125.335 167.85 126.97 170.445 127.567C171.748 127.866 173.292 127.986 174.675 127.669C177.036 127.581 179.37 126.844 181.366 125.56C184.147 123.77 186.213 121.019 186.883 117.754C187.201 116.197 187.349 114.578 187.176 112.996L187.15 112.778C188.054 112.346 189.102 112.265 190.182 112.226C190.697 112.208 191.206 112.192 191.7 112.214C192.182 112.267 192.659 112.339 193.138 112.437C193.66 112.594 194.154 112.854 194.609 113.265L194.641 113.865C194.726 115.364 194.923 116.868 195.228 118.339C195.677 120.51 196.399 122.582 197.937 124.122C198.458 124.898 199.102 125.59 199.884 126.19C202.724 128.373 206.583 129.174 210.125 128.872C217.316 128.26 221.472 122.563 222.43 120.129L222.487 119.981C223.179 118.171 223.73 115.822 225.917 115.433L226.382 115.35C227.379 115.163 228.3 114.903 228.885 113.931C229.141 113.507 229.273 113.033 229.306 112.549C229.647 112.576 229.988 112.601 230.327 112.625C233.037 113.197 249.288 113.682 250.585 113.682C250.585 113.682 253.078 114.729 254.131 113.917C254.86 113.353 255.1 112.601 254.699 111.749C254.093 110.467 251.297 109.696 250.055 109.452C250.055 109.452 230.019 109.618 228.577 109.345C227.685 108.427 226.089 108.553 224.756 108.407C223.652 107.622 222.107 107.096 220.887 106.743C220.638 106.649 220.392 106.559 220.153 106.473C217.916 105.678 215.592 105.257 213.232 105.031C210.798 104.8 208.357 104.905 205.937 105.235C204.918 105.373 203.908 105.552 202.905 105.785C201.109 106.022 199.323 106.411 197.527 106.872L197.167 106.966C195.275 107.461 193.331 107.889 191.373 107.553C189.778 107.282 188.245 106.67 186.775 106.007L186.583 105.921C183.351 104.448 178.303 103.336 174.666 103.336ZM203.099 108.722C204.292 108.46 204.801 110.295 203.605 110.558C202.757 110.744 202.039 111.17 201.554 111.892L201.503 111.971C200.852 113.005 199.206 112.05 199.861 111.01C200.599 109.839 201.745 109.019 203.099 108.722ZM168.168 107.584C168.588 107.288 169.224 107.508 169.468 107.926C169.737 108.385 169.561 108.898 169.167 109.198L169.127 109.228C168.766 109.482 168.414 109.937 168.37 110.404L168.366 110.462C168.319 111.683 166.417 111.69 166.465 110.462C166.511 109.262 167.208 108.258 168.168 107.584Z" fill="black"/>
</svg>
