<svg width="391" height="709" viewBox="0 0 391 709" fill="none" xmlns="http://www.w3.org/2000/svg">
<path fill-rule="evenodd" clip-rule="evenodd" d="M124.965 352.58C124.743 353.678 124.409 354.866 124.061 355.932C125.795 357.598 128.251 359.831 130.012 361.445C128.27 350.702 133.572 340.787 136.817 330.626C135.593 329.06 131.33 327.456 131.467 325.72C131.796 319.285 132.282 312.104 132.982 304.05C135.351 278.895 137.709 252.662 132.116 227.431C131.734 224.689 131.154 221.805 127.469 221.741C116.582 264.98 125.404 308.515 125.163 352.027L125.48 352.311L124.965 352.58ZM108.663 706.857C99.7181 706.859 91.4953 705.237 83.5347 701.952C81.2374 701.146 78.3838 700.144 77.9857 698.521C77.3312 694.079 77.7844 689.713 78.2638 685.092C79.0221 677.166 78.9466 671.003 81.0902 662.468C83.3843 654.541 85.3396 648.345 83.1008 640.148C82.9212 637.708 84.8335 635.226 86.0967 632.944C87.885 629.612 88.7925 626.145 90.2129 622.729C87.4224 622.242 84.5248 621.575 81.8457 620.747L81.3959 622.363C81.2971 622.719 81.0247 622.899 80.5867 622.899C80.3157 622.899 79.6225 622.769 79.5213 622.19C79.9417 615.949 80.5506 609.739 81.1902 603.397C87.8309 542.313 97.8864 491.957 114.773 441.736C118.829 429.975 122.972 417.731 123.001 404.952C120.695 404.458 118.127 404.175 115.777 404.5C99.032 400.627 102.342 365.277 103.008 354.697C101.827 354.343 100.506 353.842 99.5258 353.171L99.1294 353.365C82.5018 312.181 89.3301 244.091 93.1335 198.316C95.6291 181.862 92.119 152.14 106.738 144.009C118.541 139.838 130.292 137.493 142.626 134.742C144.91 133.434 147.729 132.687 150.278 131.84L148.961 129.993C147.234 127.565 147.464 122.802 149.723 121.129C151.111 121.205 153.061 122.597 154.388 123.25C156.296 119.313 158.063 115.194 159.33 110.462L159.786 110.625C161.12 97.2422 178.508 94.9065 188.312 99.3786C199.015 105.242 193.441 118.505 198.307 128.08L200.07 125.734C202.794 125.684 208.555 129.247 209.942 130.584C210.935 131.046 210.216 134.156 210.361 135.406C224.718 138.65 244.371 139.541 248.935 155.623C256.527 185.864 255.46 216.866 264.075 247C273.093 271.426 286.339 301.314 286.451 323.684C286.708 327.876 287.273 351.588 283.796 350.635L281.501 352.92C284.628 357.9 282.145 365.354 280.948 371.251C277.997 383.764 272.23 397.246 259.913 391.25C246.665 464.251 213.368 537.894 224.727 613.19C224.863 613.63 224.587 614.113 224.114 613.921L223.555 613.663C222.11 614.109 220.277 614.264 218.768 614.602C220.052 619.403 220.741 624.143 221.407 629.454C222.215 629.935 221.838 631.207 221.879 631.976C233.932 631.4 240.692 643.995 249.336 650.922C255.043 656.003 261.543 660.842 268.656 665.303C274.534 668.636 279.493 672.451 278.601 678.747C278.685 678.736 280.499 678.456 280.588 678.449C283.322 687.528 274.344 689.405 265.098 690.5C242.504 692.767 223.19 687.756 197.031 678.263C193.823 678.642 191.323 673.882 190.896 670.655C190.473 668.492 191.674 666.292 190.758 663.964C187.603 657.275 185.961 639.569 190.408 631.625C191.969 629.825 193.971 628.163 193.712 625.055C193.639 621.942 193.346 618.832 193.61 615.774C188.264 615.258 182.973 614.109 178.31 612.244C177.484 612.562 176.546 612.171 176.489 611.139C175.594 596.906 174.523 581.353 174.291 566.782C173.217 535.07 180.484 504.126 186.045 473.369C186.431 463.503 188.256 453.971 188.831 444.1C189.45 434.738 189.559 425.573 190.098 416.226L186.888 415.53C160.243 484.085 139.377 552.695 124.772 619.831C125.103 620.113 126.041 620.43 126.002 621.002C125.991 621.308 125.998 621.328 125.789 621.358C122.26 622.066 118.768 622.586 115.272 622.989C116.257 631.367 110.998 641.049 115.653 648.896C116.889 650.787 116.942 651.182 116.185 652.483C122.965 665.078 127.168 675.559 129.891 686.818L131.646 685.337C134.19 687.181 134.243 690.665 134.298 694.346C134.118 696.49 135.167 698.738 133.559 700.543C129.69 705.056 116.204 706.832 108.663 706.857Z" fill="white"/>
<path fill-rule="evenodd" clip-rule="evenodd" d="M158.222 108.445C160.072 109.941 158.142 120.726 156.652 122.927C166.732 129.406 176.918 135.737 187.316 141.671L188.392 142.283L188.359 142.274C188.791 142.467 189.522 142.639 189.95 142.554L190.244 142.457C190.305 142.437 190.34 142.428 190.323 142.442C190.497 142.35 190.665 142.253 190.829 142.141C193.794 139.442 195.954 134.866 198.277 131.308C194.322 127.826 196.293 121.04 196.453 116.404C197.2 116.386 197.288 118.754 197.502 119.441L197.623 120.096C197.908 121.63 198.233 123.193 198.821 124.619C200.531 122.456 209.189 127.566 210.811 129.21C212.578 130.334 212.036 132.334 212.013 134.093C228.444 137.284 249.397 139.529 251.605 160.118C254.203 171.164 255.591 182.406 256.875 193.663L257.084 195.459C259.328 214.829 261.32 234.44 267.657 252.986L270.077 258.75C275.316 271.251 280.426 283.855 283.77 297.009C286.364 302.622 293.269 356.193 282.882 352.061C286.434 357.846 283.775 365.458 282.542 371.643C279.987 381.793 274.886 398.382 261.161 393.491C250.813 448.706 230.315 501.902 225.132 558.077C223.449 576.336 223.485 594.814 226.343 612.959C226.729 614.683 225.078 616.207 223.391 615.451C222.544 615.692 221.648 615.765 220.779 615.929C221.779 619.947 222.365 624.142 222.898 628.248L222.957 628.704L222.959 628.706C223.374 629.166 223.578 629.749 223.56 630.408C229.83 630.43 235.076 634.471 239.253 638.765C246.497 646.333 254.146 653.549 262.815 659.489C269.02 664.524 279.906 667.476 280.256 676.839C283.423 676.304 282.665 683.214 282.103 685.039C281.445 687.084 279.534 688.262 277.7 689.174C251.333 697.995 222.291 689.404 197.222 679.931C192.829 680.512 189.689 674.707 189.219 670.88C188.741 668.768 189.865 666.714 189.209 664.656L188.993 664.09C188.204 662.021 187.459 659.999 187.009 657.806L186.944 657.349C185.875 649.776 185.014 636.951 189.078 630.617C193.819 626.56 191.365 622.672 191.841 617.268C187.16 616.735 182.531 615.678 178.152 613.995C176.425 614.362 174.919 612.966 174.805 611.294L174.636 608.62C173.752 594.706 172.832 580.777 172.602 566.833C171.521 535.194 178.702 504.232 184.357 473.33C184.913 461.417 187.191 449.652 187.511 437.71C187.751 430.514 188.05 423.337 188.411 416.153C162.767 482.123 141.72 549.935 126.614 619.088C128.004 620.03 128.156 622.596 126.087 623.009C123.061 623.611 120.014 624.104 116.956 624.476C117.445 631.902 113.02 641.946 117.119 648.241L117.283 648.492C118.061 649.699 118.822 651.077 118.027 652.478C123.354 662.46 127.972 672.875 130.813 683.868C134.059 682.538 135.909 689.125 135.813 691.504C135.604 694.624 137.288 699.882 134.594 702.015C120.442 711.121 101.231 709.709 85.8062 704.666C82.9452 703.441 79.6664 702.608 77.2141 700.651C76.1026 699.525 76.1786 697.674 76.0882 696.212L76.0605 695.455C75.915 691.246 75.9292 686.957 77.0835 682.811C76.7747 676.805 77.6724 670.719 78.8551 664.843C79.6125 660.1 81.7934 655.595 82.0869 650.808C83.6351 646.524 80.8429 642.519 81.5934 638.239C82.2058 635.63 84.1255 633.376 85.2369 630.947L85.3149 630.773C86.3206 628.564 87.0412 626.275 87.913 624.009C86.2434 623.691 84.5953 623.3 82.9708 622.831C82.1938 625.642 77.6962 624.848 77.8292 621.982C81.5231 575.772 88.8637 529.818 100.226 484.861C105.527 458.271 119.217 433.48 121.28 406.346C119.638 406.038 117.767 405.959 116.157 406.145L115.965 406.168C114.937 406.296 113.949 406.476 112.846 405.957C98.699 397.236 100.153 370.511 101.227 355.884C100.588 355.671 99.9775 355.408 99.4217 355.078C98.9301 355.443 98.1844 355.464 97.897 354.792C97.1727 353.092 96.2417 351.433 95.6119 349.705C79.2197 293.442 89.687 234.152 92.9874 176.799C94.2734 165.016 94.2832 149.018 106.01 142.525C109.945 140.665 114.386 139.866 118.58 138.793C128.205 135.927 138.258 134.644 147.58 130.978C145.411 127.97 145.927 123.584 147.734 120.559C149.167 118.382 151.919 120.048 153.619 120.974C155.582 116.97 156.929 112.7 158.222 108.445ZM131.407 686.437L131.494 686.84C131.953 688.996 132.349 691.26 132.119 693.452C138.216 699.385 110.121 700.136 107.021 700.122C99.9271 700.05 79.0698 697.689 78.0382 689.153L78.05 689.357C78.188 692.073 77.7268 697.143 79.2066 699.15C90.391 704.958 103.404 707.256 115.923 705.825L116.373 705.765C121.363 705.081 130.84 703.066 133.302 698.913C132.758 695.047 134.095 689.509 131.407 686.437ZM111.175 648.089C104.328 640.649 93.0812 646.087 85.8611 650.236C85.5885 653.494 83.3005 654.692 83.2079 658.11C81.6694 668.548 78.1246 680.347 82.6407 690.426C96.1035 697.62 112.113 697.133 126.678 694.036C127.06 693.541 127.541 693.392 128.229 693.204C128.662 690.145 127.787 687.071 127.208 684.103C125.752 677.863 123.868 671.737 122.192 665.554C119.19 663.618 118.092 659.552 116.526 656.486C116.101 655.626 115.666 654.766 115.21 653.912C112.766 653.113 112.126 650.2 111.175 648.089ZM191.439 668.609C190.703 676.112 198.035 679.103 203.962 680.903C210.633 683.271 217.468 685.235 224.341 686.934C238.421 690.555 253.101 692.142 267.534 689.872L267.784 689.827C271.949 689.095 279.409 688.216 280.355 683.404L280.365 683.293C280.43 682.505 280.553 679.536 280.256 678.777C280.146 678.775 280.04 678.751 279.937 678.701C278.731 682.552 274.335 684.894 270.098 685.499C268.1 687.502 264.419 686.759 261.755 686.873C244.173 686.699 227.269 681.266 210.609 676.216C205.308 674.376 194.74 673.058 191.439 668.609ZM192.95 629.991C189.898 628.918 189.319 637.45 188.929 639.533C187.945 648.343 187.968 662.08 195.113 668.327C202.568 671.514 210.614 672.977 218.304 675.485L220.124 676.019C234.7 680.278 249.679 684.261 264.978 683.633C266.132 681.329 273.458 683.245 276.252 679.138C279.999 672.616 270.536 668.415 266.059 665.637C257.459 660.127 249.427 653.721 242.184 646.525C238.778 643.143 235.662 639.27 231.663 636.551L231.454 636.411C228.028 634.144 223.63 632.737 219.606 634.226C215.687 635.674 214.248 640.142 210.961 642.45C203.637 647.189 196.136 639.7 193.757 632.922L193.686 632.716C193.601 632.506 193.833 632.378 194.009 632.435C193.992 632.368 193.981 632.299 193.966 632.233C193.042 631.992 192.955 630.843 192.95 629.991ZM88.7775 624.168C89.7343 629.566 87.0386 634.409 85.027 639.184C84.4855 642.35 86.4757 645.385 86.0155 648.606C92.6001 643.446 102.566 638.871 110.51 643.583C110.553 639.032 112.122 634.615 113.486 630.313L114.04 628.606C114.471 627.28 114.91 625.96 115.395 624.656C106.549 625.578 97.5933 625.67 88.7775 624.168ZM218.342 616.299C210.6 617.365 202.773 617.977 194.978 617.548L195.864 630.965C195.899 631.515 195.667 631.896 195.322 632.114C196.472 636.473 200.089 640.353 204.575 641.297C211.503 642.191 212.435 633.02 218.318 631.325C217.192 628.799 217.999 625.479 217.889 622.729C217.95 620.565 218.062 618.422 218.342 616.299ZM192.848 628.441C192.698 628.749 192.522 629.036 192.33 629.313C192.534 629.332 192.731 629.394 192.917 629.505C192.895 629.152 192.871 628.796 192.848 628.441ZM123.121 355.066C116.345 357.41 108.951 357.889 101.97 356.109C103.501 367.564 105.039 394.698 114.794 401.314C116.443 401.077 118.098 400.961 119.763 401.127C120.753 401.225 121.733 401.385 122.715 401.537C123.083 401.588 123.818 401.626 124.288 401.593L124.368 401.587C124.243 401.596 124.146 401.594 124.277 401.585L124.477 401.575L124.579 401.567C127.962 401.264 131.014 396.494 134.361 398.783C134.853 398.04 135.595 397.564 136.166 396.903C138.706 392.463 136.008 386.748 137.705 382.067C137.064 381.192 137.275 379.881 138.282 379.133C139.851 377.693 143.169 378.765 144.072 376.698C144.01 376.811 144.006 376.681 144.03 376.613L144.036 376.599L143.876 376.468C136.944 370.737 130.241 364.334 125.698 356.385L125.546 356.116C124.677 356.958 123.248 356.315 123.121 355.066ZM281.41 351.179C276.636 353.786 271.497 355.675 266.165 356.768C265.07 367.235 263.812 377.707 262.095 388.089L262.502 388.162C264.882 388.597 267.391 389.183 269.447 387.544C276.219 380.974 278.66 367.759 281.32 358.835L281.424 358.428C281.983 356.24 282.625 353.212 281.41 351.179ZM211.999 134.825C211.288 138.378 215.21 177.062 208.056 170.445C203.215 162.855 197.677 155.751 192.727 148.239C192.045 150.925 194.04 154.116 193.097 156.393C205.695 219.415 214.834 283.409 218.221 347.61C223.789 351.514 228.672 356.246 233.458 361.042C234.95 362.308 236.033 364.378 237.885 365.106C245.405 356.617 254.092 349.259 261.997 341.139C261.924 340.583 261.841 340.028 261.746 339.474C261.351 337.167 264.322 335.999 265.47 337.414C267.868 331.336 268.092 324.192 267.498 317.671C266.332 306.709 262.235 296.236 259.308 285.672C250.873 253.356 245.035 219.454 247.798 186C247.838 185.689 248.252 185.685 248.288 186C250.58 221.343 254.152 256.785 264.797 290.756L265.051 291.596C269.21 305.326 274.354 319.881 270.794 334.281C271.089 336.219 270.158 338.151 268.749 339.544C268.122 341.059 267.424 342.559 266.595 343.972C266.881 347.251 266.743 350.538 266.453 353.801C271.924 352.632 277.028 350.396 281.909 347.7C282.198 346.055 282.452 344.406 282.65 342.749C286.438 312.026 274.883 282.147 263.323 254.257C252.307 221.754 254.458 186.48 245.252 153.6C239.428 140.779 223.519 139.771 211.999 134.825ZM149.558 132.443L149.179 132.575C146.527 133.508 143.868 134.589 141.032 134.668C132.133 137.625 123.008 139.894 113.962 142.362L113.087 142.601C109.225 143.661 105.326 144.871 102.72 148.109C100.222 151.214 99.1771 155.212 98.3606 159.03C94.5347 192.394 92.3669 226.095 90.423 259.658C89.47 287.603 90.0131 316.016 97.168 343.209C98.178 346.934 99.407 350.672 99.8421 354.5C100.362 354.507 100.885 354.543 101.41 354.595C101.417 354.344 101.798 354.385 101.77 354.63C108.723 355.725 115.948 355.078 122.472 352.386C120.861 303.431 110.387 250.299 134.112 204.885C134.209 204.712 134.504 204.831 134.437 205.022L133.852 206.707C131.971 212.134 130.132 217.57 128.809 223.168C130.694 222.888 132.069 227.297 132.426 228.377C142.709 259.543 136.376 292.8 135.067 324.807C152.771 337.658 170.649 350.297 189.048 362.141C197.405 356.72 204.89 349.611 213.476 344.695C211.022 278.569 197.506 213.144 190.159 147.836C187.434 151.217 184.659 154.558 181.888 157.9C178.323 162.268 174.877 166.75 171.362 171.161C170.635 172.076 169.051 171.72 168.534 170.798C161.611 158.31 157.209 144.518 149.558 132.443ZM128.69 223.666C118.476 265.638 126.962 308.862 126.802 351.312C127.562 351.983 127.28 353.255 126.393 353.716C126.263 354.301 126.108 354.881 125.928 355.462C126.64 356.138 127.358 356.808 128.082 357.472C127.531 348.231 132.191 339.836 134.891 331.159C132.949 329.431 129.312 328.36 129.797 325.203C130.172 318.339 130.652 311.48 131.233 304.633L131.592 300.799C133.856 276.497 135.779 251.799 130.457 227.766L130.425 227.583C130.251 226.532 129.919 223.879 128.69 223.666ZM281.868 350.931L281.785 350.975L281.97 351.132C281.932 351.068 281.899 350.999 281.868 350.931ZM220.776 336.629C218.409 334.314 222.063 330.642 224.4 333.013C226.765 335.333 223.109 339.004 220.776 336.629ZM219.216 309.091C218.693 307.722 220.148 305.549 221.686 306.46L221.734 306.489L221.755 306.46C223.211 307.318 222.674 309.096 221.819 310.155C220.872 311.129 219.692 309.973 219.216 309.091ZM216.993 277.386C212.875 272.002 221.527 269.794 220.109 276.422C219.807 277.661 217.316 279.469 216.993 277.386ZM210.904 247.388C208.719 244.722 213.417 242.428 214.4 245.61C214.963 247.733 212.309 249.043 210.904 247.388ZM232.77 181.255C234.064 181.455 240.606 180.122 238.923 182.841C241.555 195.968 248.958 211.984 238.389 223.455L238.294 223.548C236.736 225.102 234.243 228.796 231.857 227.273C226.562 222.816 219.74 219.63 215.694 213.925C213.993 209.449 215.441 204.448 214.991 199.765C214.799 193.843 213.811 187.974 213.599 182.061C213.59 181.774 213.901 181.682 214.096 181.802C220.305 181.31 226.547 181.419 232.77 181.255ZM214.307 182.217C217.116 191.344 217.18 201.102 217.105 210.561C217.148 211.537 217.321 212.485 217.831 213.23C221.847 217.956 227.568 220.918 232.335 224.843C234.265 223.585 235.793 221.977 237.161 220.153C245.537 209.213 237.947 195.442 237.956 183.26L236.883 183.262C229.364 183.272 221.774 183.174 214.307 182.217ZM207.986 216.112L208.059 216.112C210.94 216.119 210.279 220.992 207.56 220.324C205.268 219.782 205.618 216.141 207.986 216.112ZM202.335 191.24C200.339 187.846 206.926 186.533 206.232 190.453L206.247 190.292C206.25 190.262 206.253 190.234 206.256 190.209L206.206 190.577C205.967 192.311 202.537 193.553 202.335 191.24ZM197.913 163.126C199.744 162.643 201.094 165.209 199.524 166.359C197.19 168.117 195.18 163.738 197.913 163.126ZM153.03 123.363L152.807 123.157C150.418 120.968 148.627 119.873 148.098 124.335C147.729 126.511 148.045 129.255 150.135 130.542C160.141 140.417 163.934 154.515 170.381 166.66C176.203 159.622 181.622 152.296 187.252 145.116C179.495 140.398 171.661 135.716 164.009 130.793C160.352 128.366 156.417 126.157 153.03 123.363ZM203.402 129.184C200.392 134.087 197.614 139.39 193.776 143.729C193.287 144.22 192.779 144.609 192.254 144.905C193.005 144.688 193.999 145.249 193.905 146.071C199.491 151.629 204.057 158.094 208.42 164.636C209.254 153.814 207.664 142.947 208.28 132.109C206.862 130.808 205.173 129.916 203.402 129.184Z" fill="black"/>
<path fill-rule="evenodd" clip-rule="evenodd" d="M184.138 13.9139C194.77 13.9139 207.528 19.0581 208.612 19.161L208.642 19.1626C209.212 19.1626 211.442 20.858 215.331 24.2487L211.119 32.4479L211.46 32.7727C213.091 34.3335 214.484 35.7561 215.583 36.8776C224.558 46.0343 226.171 81.9862 224.056 94.5239C221.941 107.061 218.023 119.33 199.784 119.33C181.546 119.33 161.254 108.385 158.129 104.977C156.045 102.705 153.704 101.616 151.107 101.711C151 101.577 150.894 101.443 150.789 101.309L150.407 101.255C146.812 100.736 144.236 100.036 142.679 99.1573C139.639 97.4406 136.297 88.4154 136.297 86.4273C136.297 84.459 131.307 70.1407 131.207 68.6255L131.205 68.5835C131.205 67.3169 124.686 61.4941 124.686 59.6449C124.686 57.7957 123.372 57.9079 124.686 51.3917L125.068 49.4774C126.466 42.5395 129.203 31.0513 139.639 26.0593C151.107 20.5737 173.397 13.9139 184.138 13.9139Z" fill="white"/>
<path fill-rule="evenodd" clip-rule="evenodd" d="M184.193 13.2521C194.826 13.2521 207.583 18.3963 208.668 18.4992L208.697 18.5007C209.268 18.5007 211.498 20.1961 215.387 23.5869L211.174 31.786L211.515 32.1108C213.146 33.6716 214.539 35.0943 215.638 36.2157C224.613 45.3724 186.308 16.3005 184.193 28.8381C182.078 41.3758 159.055 34.8381 161.055 49.8381C163.055 64.8381 141.055 74.3381 141.055 83.3381C138.555 95.3381 155.555 92.8381 155.555 100.593C155.448 100.459 150.949 100.781 150.844 100.647L150.462 100.593C146.867 100.074 144.292 99.3744 142.735 98.4955C139.694 96.7787 136.352 87.7536 136.352 85.7654C136.352 83.7972 131.362 69.4788 131.262 67.9636L131.261 67.9217C131.261 66.655 124.741 60.8323 124.741 58.9831C124.741 57.1339 123.427 57.2461 124.741 50.7298L125.123 48.8155C126.521 41.8776 129.258 30.3894 139.694 25.3975C151.162 19.9118 173.453 13.2521 184.193 13.2521Z" fill="#1E5141"/>
<path fill-rule="evenodd" clip-rule="evenodd" d="M137.869 25.8016C143.588 19.7432 176.058 10.3723 192.486 12.3587L192.978 12.4224C194.289 12.5883 195.581 12.8395 196.856 13.1808C200.978 14.1414 205.235 15.596 208.64 18.0256C211.483 20.0131 220.452 23.259 217.808 28.4585C218.789 30.3117 219.154 32.6012 218.492 34.4264C218.409 35.0569 218.214 35.6375 217.965 36.2395C220.059 39.3233 221.717 42.8107 223.059 46.1276C225.404 54.4753 226.863 63.1627 227.077 71.6797C227.788 87.8608 226.01 107.189 211.889 117.653C203.358 124.283 189.995 124.506 180.408 116.285C179.864 115.642 177.305 113.908 178.159 113.604C178.413 113.872 178.674 114.133 178.94 114.389C178.928 114.36 178.926 114.332 178.931 114.301L178.681 114.075C178.21 113.64 177.599 113.009 178.294 113.133C178.325 113.168 178.359 113.199 178.392 113.235C178.539 113.323 178.65 113.399 178.737 113.467L178.781 113.502L178.767 113.488C178.367 113.062 178.127 112.627 178.726 112.905L178.805 112.943C179.071 113.223 179.342 113.491 179.617 113.751C179.613 113.721 179.617 113.69 179.634 113.657L179.377 113.409C179.126 113.164 179.165 113.163 179.287 112.964C178.754 112.219 179.749 112.662 179.819 112.953C180.441 112.806 180.988 113.972 181.389 114.114C198.963 127.597 224.466 115.633 224.053 78.0614L224.047 77.3263C223.926 65.3124 222.913 52.9643 217.934 42.089C217.449 41.0414 216.908 40.0222 216.312 39.0363C215.901 38.2968 215.462 37.5763 214.989 36.8747C213.666 36.7681 212.36 36.5263 211.073 36.1519C210.631 36.0405 210.194 35.9172 209.757 35.7726C203.373 36.1201 197.132 36.4981 190.73 36.8565L188.731 36.9808C183.308 37.3287 177.7 37.886 173.324 41.2334C169.03 44.2808 169.01 50.2902 165.335 53.6361C160.093 57.1863 160.055 60.3876 159.046 65.6193C159.121 69.5632 161.861 75.2934 156.832 76.9531C157.681 78.1602 156.498 77.5803 156.405 77.157C156.396 77.1593 156.386 77.1617 156.379 77.1617C157.135 78.5641 156.024 77.681 155.925 77.2304C155.866 77.2139 155.807 77.1712 155.747 77.1119C156.509 78.3406 155.278 77.4803 155.351 77.2565C153.879 74.999 150.85 74.6485 148.715 75.2467C148.689 75.3273 148.594 75.3344 148.535 75.2917C139.456 77.2551 141.799 96.0111 151.102 94.198C151.5 94.1169 151.491 94.3077 151.57 94.326C151.355 93.7628 151.961 93.992 151.954 94.1103L151.991 94.1085C152.02 94.1059 152.008 94.1027 152.03 94.1103C151.822 92.9587 152.992 94.6272 152.899 94.6957C152.935 94.6744 152.976 94.6625 153.011 94.6578L152.971 94.5485C152.777 94.0325 152.794 94.247 152.795 93.9515C152.649 93.5863 152.638 93.746 152.673 93.5081C153.185 93.1118 153.336 94.3139 153.507 94.4018C153.214 93.9942 153.447 93.6612 153.724 93.8825C155.819 98.281 158.526 102.414 162.024 105.669C162.406 105.97 162.794 106.267 163.195 106.546C164.683 107.84 166.965 108.671 168.358 109.817C168.358 109.836 168.348 109.86 168.334 109.883L168.366 109.912L168.398 109.943L168.883 110.175C169.025 110.296 169.153 110.431 169.267 110.58C169.389 110.72 169.495 110.874 169.586 111.038C169.631 111.237 169.531 111.32 169.341 111.234C169.258 111.206 169.175 111.173 169.092 111.142C169.096 111.149 169.099 111.154 169.104 111.158C169.131 111.2 169.315 111.626 169.103 111.557L169.077 111.547C168.961 111.504 168.845 111.457 168.731 111.412C168.866 111.58 168.989 111.763 169.099 111.917C169.215 112.038 169.286 112.18 169.315 112.341C169.31 112.431 169.26 112.469 169.17 112.457C169.032 112.412 168.897 112.365 168.761 112.315L168.8 112.388C168.896 112.577 169.032 112.892 168.79 112.787C168.583 112.723 168.384 112.649 168.185 112.569C168.168 112.602 168.135 112.614 168.068 112.583C167.434 112.358 166.821 112.083 166.235 111.758C165.719 111.384 165.199 111.016 164.682 110.644C164.194 110.353 163.724 110.028 163.276 109.663C160.272 107.727 157.643 105.268 155.557 102.529C152.069 105.544 145.094 102.664 140.779 100.303C136.963 98.194 135.463 94.2937 135.075 90.0887C134.269 84.4275 129.633 82.4897 129.956 70.068C129.949 70.0704 129.941 70.0704 129.932 70.0704C129.763 70.0206 129.6 69.9542 129.445 69.8689C129.286 69.7931 129.137 69.703 128.996 69.594L128.823 69.3546C128.733 69.3048 128.652 69.2527 128.59 69.2005L128.558 69.2418C128.457 69.3638 128.525 69.1802 128.531 69.1437L128.23 68.7349C127.516 67.7619 126.732 66.6702 126.094 65.7971L126.074 65.8326C126.059 65.8593 126.052 65.8787 126.059 65.8871C124.54 63.7095 123.112 61.0792 122.715 58.5327C122.246 56.5712 122.429 54.55 122.838 52.7331C124.59 46.3705 130.331 31.9727 137.869 25.8016ZM179.085 113.792L178.989 113.708L179.073 113.812C179.117 113.866 179.162 113.915 179.235 113.965C179.23 113.948 179.23 113.931 179.232 113.912C179.184 113.876 179.134 113.835 179.085 113.792ZM192.413 15.5557C181.273 14.5998 170.316 17.0491 159.685 20.0138L158.952 20.2242C152.907 21.9455 146.516 23.4944 141.408 27.1787C134.271 32.6339 130.585 41.3123 127.369 49.3249C124.561 55.2781 125.997 61.9909 130.229 66.1479C130.669 62.017 131.42 58.007 132.593 54.0293C132.838 53.4078 132.653 53.2043 133.18 53.1232C133.977 63.8427 130.052 71.7626 137.82 84.4668C141.191 90.4613 137.289 94.8474 146.807 98.0018L147.065 98.1C149.048 98.8468 151.214 99.4362 153.156 99.0188L152.982 98.7363C152.804 98.4454 152.751 98.3042 153.009 98.1798C153.002 98.1655 152.992 98.1513 152.983 98.1347C152.774 97.7413 152.572 97.3431 152.379 96.9402C152.301 96.9663 152.223 96.9852 152.142 97.0066C152.194 97.1037 152.201 97.2009 152.054 97.2341C151.531 97.4133 150.994 97.4851 150.443 97.4515L150.325 97.4427C149.704 97.4047 149.312 97.2917 148.962 97.1867C148.846 97.1677 148.729 97.1488 148.615 97.1251C147.488 96.8757 146.295 96.2415 145.523 95.6129C136.722 90.6244 137.632 73.6428 148.48 72.0376C148.703 61.3456 153.798 43.3072 162.255 33.1188C169.9 23.7472 190.769 19.6853 205.288 21.1176C205.5 21.1875 205.711 21.2581 205.923 21.3295C208.163 21.5281 210.298 22.524 212.539 22.9867C210.93 21.7829 209.104 20.9811 207.223 20.2997C203.476 18.0123 199.18 16.7746 195.03 15.9017C194.171 15.6908 193.299 15.5746 192.413 15.5557ZM147.984 80.6268C148.567 80.3106 148.5 80.6159 148.634 80.5272C152.83 80.1857 157.354 83.8515 159.699 86.9075C159.514 87.0995 159.013 86.5307 158.925 86.4406C158.913 86.4525 158.899 86.4619 158.884 86.4667L158.95 86.5587C159.9 87.92 158.016 86.3181 157.839 85.9879C157.808 86.0045 157.778 86.014 157.742 86.0069C157.891 86.1531 158.348 86.5345 158.426 86.8056L158.547 86.9061C159.687 87.8808 159.593 88.614 158.298 87.2299C158.329 87.2938 158.34 87.3531 158.319 87.4005L158.364 87.4302C159 87.8742 159.524 89.112 158.193 87.8413C158.332 88.7695 156.874 86.9755 156.828 86.9881C154.306 85.0126 150.593 83.0914 147.43 82.8333L147.321 82.8208C146.741 82.7464 146.466 82.5745 146.67 82.1958C145.955 82.0261 146.123 81.6748 146.461 81.6862C145.957 81.3553 146.411 81.0389 146.703 81.1624C146.502 80.6066 147.309 80.9768 147.383 80.8993C147.801 80.2549 147.914 80.7924 147.984 80.6268ZM139.189 46.1773C141.204 45.4407 147.157 47.6459 146.68 50.5663C146.397 51.2368 145.463 51.621 144.806 51.2425L143.949 50.668C142.457 49.6712 141.112 48.7971 139.511 47.9277C138.639 47.4961 138.264 46.5798 139.189 46.1773ZM150.654 41.8374L149.876 41.332C145.676 38.5889 139.739 34.4325 150.268 38.7328C151.468 39.2464 153.063 39.5503 153.717 40.6908C154.746 42.7928 152.039 42.9341 150.654 41.8374ZM151.126 29.5297C150.789 28.2534 154.982 29.7511 156.203 30.1459L156.389 30.216C157.576 30.6576 158.938 31.0672 159.648 32.0899C160.48 33.503 158.796 33.7957 157.752 33.1574C155.613 31.7624 153.268 30.7098 151.126 29.5297ZM161.789 23.5843C159.429 21.012 165.746 23.4762 166.692 24.1603L166.719 24.1804C167.425 24.6765 167.282 25.7449 166.619 26.0587C164.731 26.0945 163.343 24.5246 161.789 23.5843ZM172.53 20.766C168.778 18.0748 173.721 19.3549 175.437 20.4096C176.608 21.4394 175.402 23.1778 172.53 20.766Z" fill="black"/>
<path fill-rule="evenodd" clip-rule="evenodd" d="M205.923 92.7508C206.738 91.316 209.169 91.5492 209.541 93.2227C210.295 96.6153 206.241 99.7481 203.163 99.8263C200.103 99.9038 196.67 97.305 197.113 94.0224C197.223 93.2104 198.309 93.309 198.68 93.8181L198.824 94.0134C199.83 95.3625 201.158 96.7589 203.025 96.4299C203.799 96.2939 204.502 95.8113 204.97 95.1901C205.534 94.4405 205.472 93.5453 205.923 92.7508ZM186.468 67.931C186.883 67.817 187.302 67.8611 187.669 68.017C188.489 68.167 189.174 68.8496 189.415 69.6289C189.434 69.6964 189.455 69.763 189.479 69.8289L189.515 69.9273L189.417 69.6775C189.462 69.9235 189.663 70.1821 189.735 70.4291C189.824 70.7327 189.846 71.0775 189.816 71.4117C190.077 71.4143 190.337 71.4231 190.598 71.4456L190.849 71.4681C192.256 71.5986 193.8 71.8379 194.634 73.0509C195.102 73.7325 194.663 74.9598 193.802 75.0911C192.478 75.2932 191.337 74.5618 190.017 74.4153C188.769 74.2767 187.463 74.3561 186.232 74.581C183.689 75.0449 181.352 76.0735 178.875 76.7189L178.537 76.8044L178.538 76.8027C178.113 76.9051 177.631 76.3159 178.051 75.9713C180.036 74.3438 182.578 73.0248 185.082 72.2216C184.717 71.6426 184.604 70.8799 184.853 70.2582C184.892 70.1293 184.94 70.0041 184.991 69.8792L185.096 69.6223C185.106 69.5012 185.129 69.3815 185.163 69.2642L185.169 69.2284L185.172 69.2305C185.358 68.6259 185.845 68.1026 186.468 67.931ZM211.795 68.0246C212.338 67.4825 213.101 67.5626 213.668 67.9892L213.743 68.048C214.277 68.2848 214.719 68.8022 215.009 69.2817C215.311 69.7796 215.511 70.2868 215.519 70.835C216.833 70.8393 218.092 71.2327 219.057 72.2917C219.369 72.6335 219.581 73.1606 219.41 73.6239L219.308 73.8996C218.984 74.7747 217.527 75.2785 217.032 74.2493L217.009 74.1991C216.483 72.9771 214.464 73.1053 213.39 73.2302C212.642 73.3177 211.904 73.5033 211.181 73.7111C210.927 73.7844 210.674 73.8639 210.422 73.945L210.17 74.0266C210.036 74.07 209.336 74.4494 209.771 74.3596C209.888 74.3354 209.977 74.5056 209.857 74.5627C209.338 74.8104 208.784 74.3172 208.819 73.7607C208.879 72.7947 210.416 72.265 211.156 71.9319L211.2 71.9118C211.483 71.7809 211.78 71.6556 212.087 71.5392C211.915 71.2832 211.772 70.9988 211.654 70.6935C211.542 70.4053 211.467 70.1252 211.426 69.8187C211.385 69.6689 211.385 69.5191 211.426 69.3691L211.432 69.3262C211.411 69.2271 211.401 69.1248 211.402 69.0217L211.398 68.9816H211.402C211.417 68.6206 211.561 68.259 211.795 68.0246ZM203.12 78.3119C205.206 78.9552 208.647 80.7074 207.56 83.4119C206.043 85.8958 202.017 84.0703 200.067 83.2678C198.315 82.6886 197.402 85.1395 199.097 85.8782C213.099 91.4065 213.047 76.8164 203.628 77.0307C202.591 77.0541 202.558 78.0982 203.12 78.3119ZM184.595 59.2878L184.951 59.1842C186.8 58.6497 188.687 57.7268 190.329 59.1669C190.973 59.7324 191.106 60.9075 190.645 61.6128C189.594 63.22 188.036 62.9744 186.339 63.1114C185.047 63.2157 183.774 63.5945 182.568 64.0678C181.583 64.4548 180.669 64.9997 179.806 65.6074C178.958 66.2049 178.379 67.1389 177.509 67.6767C177.19 67.8739 176.822 67.671 176.708 67.3513C176.302 66.2172 176.987 64.8044 177.567 63.8381C178.275 62.6592 179.351 61.6951 180.507 60.9655C181.773 60.1666 183.173 59.7052 184.595 59.2878ZM211.535 58.0675C214.66 58.0666 217.668 59.8012 219.415 62.3441C220.009 63.208 219.574 64.4879 218.721 64.9854C217.765 65.5437 216.742 65.1417 216.112 64.3415L216.075 64.2931C215.072 62.9608 213.78 61.9116 212.248 61.2285C211.501 60.895 210.674 60.6246 209.866 60.4874L209.605 60.4427C209.239 60.3815 208.814 60.323 208.483 60.3803C208.305 60.4035 208.142 60.462 207.992 60.5511C208.064 60.7085 207.878 60.8981 207.706 60.8038C206.929 60.3781 207.024 59.6187 207.666 59.0286C208.573 58.1936 210.363 58.0677 211.535 58.0675Z" fill="black"/>
<path fill-rule="evenodd" clip-rule="evenodd" d="M183.17 102.671C185.092 98.1756 189.289 94.8718 194.121 93.6638C197.669 92.7791 201.392 92.8073 205.009 93.1585C206.904 93.3412 208.937 93.4909 210.723 94.1932C212.248 94.7932 213.491 95.9273 214.425 97.2586C215.538 98.8362 216.294 100.642 216.825 102.492C216.901 102.756 216.972 103.021 217.038 103.287C216.807 104.683 216.316 105.872 215.021 106.75C213.756 107.607 212.247 107.958 210.743 108.082C210.595 108.011 210.453 107.939 210.322 107.864C207.978 106.525 206.328 103.361 203.37 103.789C200.73 104.171 198.992 107.487 197.421 109.431C192.381 110.017 187.345 108.505 183.245 105.629C183.036 104.645 183.024 103.652 183.17 102.671ZM220.463 99.2609C220.06 98.1318 219.552 97.0382 218.95 96.008C216.961 92.6011 213.906 89.8866 210.279 88.3349C201.701 84.6692 190.601 87.2532 183.673 93.2652C181.307 95.3204 178.914 98.3405 178.19 101.589C177.974 101.632 177.77 101.744 177.602 101.902C172.597 98.7572 167.442 95.7314 163.409 91.3719C160.48 88.2044 158.443 84.4559 157.195 80.3368C157.093 79.9977 156.545 80.0473 156.562 80.4224C156.566 80.5102 156.571 80.5977 156.576 80.6855C156.524 80.5242 156.277 80.6072 156.258 80.7638C155.587 85.7677 154.747 91.0729 155.521 96.1029C155.983 99.1043 157.349 101.302 159.175 103.674C161.132 106.217 163.347 108.583 165.612 110.851C167.05 112.291 168.551 113.952 170.311 115.008C172.358 116.235 174.68 117.167 176.864 118.114C179.086 119.08 181.342 119.972 183.64 120.745C188.234 122.297 192.982 123.369 197.814 123.839C201.682 124.214 206.103 124.622 209.81 123.17C212.651 122.057 214.945 120.045 216.764 117.625C218.744 114.989 220.31 111.987 221.175 108.82C222.075 105.531 220.653 99.7912 220.463 99.2609Z" fill="black"/>
<path fill-rule="evenodd" clip-rule="evenodd" d="M217.388 60.6746C222.962 60.6746 226.144 61.8709 227.309 61.9641L227.344 61.9666C227.829 61.9975 228.264 62.038 228.72 62.2141C230.398 62.859 230.672 64.6154 229.693 65.7223C229.624 68.0127 229.926 70.6888 229.408 72.9866C228.769 82.6734 224.204 84.3082 221.609 84.9048C220.307 85.2044 218.763 85.3237 217.379 85.0074C215.018 84.9196 212.685 84.182 210.688 82.8978C207.907 81.1079 205.842 78.3568 205.172 75.0919C204.854 73.5356 204.705 71.9157 204.878 70.3337L204.904 70.1158C204 69.6843 202.953 69.6027 201.873 69.5646C201.357 69.5463 200.849 69.5298 200.355 69.5517C199.872 69.6055 199.395 69.6772 198.917 69.7747C198.394 69.932 197.901 70.1917 197.445 70.6029L197.414 71.2031C197.328 72.7025 197.131 74.2063 196.827 75.6773C196.378 77.8477 195.655 79.9206 194.117 81.4602C193.597 82.236 192.953 82.9285 192.171 83.5283C189.33 85.7109 185.471 86.5122 181.929 86.2104C174.739 85.5981 170.583 79.9016 169.625 77.4667L169.568 77.3192C168.876 75.5091 168.324 73.1604 166.138 72.7715L165.673 72.6881C164.675 72.5012 163.754 72.241 163.169 71.2695C162.913 70.8454 162.781 70.3711 162.749 69.8875C162.408 69.9137 162.067 69.9387 161.727 69.963C159.018 70.5348 142.767 71.0196 141.47 71.0196C141.47 71.0196 138.976 72.067 137.924 71.2555C137.194 70.6912 136.954 69.9392 137.356 69.0872C137.962 67.8053 140.758 67.0342 141.999 66.7901C141.999 66.7901 162.035 66.9561 163.477 66.6833C164.369 65.7651 165.965 65.8908 167.299 65.7456C168.403 64.96 169.947 64.4338 171.167 64.0816C171.416 63.9876 171.662 63.8967 171.901 63.811C174.138 63.0161 176.463 62.5951 178.823 62.369C181.257 62.1382 183.698 62.2427 186.117 62.5735C187.137 62.7115 188.147 62.89 189.15 63.1235C190.946 63.3597 192.731 63.7489 194.528 64.2106L194.887 64.3039C196.779 64.7989 198.723 65.227 200.682 64.8915C202.276 64.6201 203.81 64.0077 205.28 63.3455L205.471 63.2589C208.703 61.786 213.751 60.6746 217.388 60.6746ZM188.955 66.06C187.763 65.7982 187.253 67.6333 188.45 67.8958C189.297 68.0817 190.015 68.5081 190.5 69.2305L190.551 69.309C191.202 70.3428 192.849 69.3885 192.193 68.348C191.456 67.1771 190.309 66.357 188.955 66.06ZM223.887 64.9222C223.466 64.6266 222.83 64.846 222.586 65.2637C222.317 65.7236 222.493 66.2357 222.887 66.5366L222.927 66.5659C223.289 66.82 223.64 67.2754 223.684 67.742L223.688 67.8004C223.736 69.0215 225.637 69.0277 225.59 67.8004C225.543 66.5997 224.847 65.5966 223.887 64.9222Z" fill="black"/>
</svg>
