<svg width="221" height="385" viewBox="0 0 221 385" fill="none" xmlns="http://www.w3.org/2000/svg">
<g clip-path="url(#clip0_412_19307)">
<path d="M68.4267 331.613H75.5387C77.9653 331.613 79.7667 332.183 80.9427 333.321C82.1187 334.441 82.7067 336.187 82.7067 338.557V344.269C82.7067 346.64 82.1187 348.395 80.9427 349.533C79.7667 350.653 77.9653 351.213 75.5387 351.213H68.4267V347.657H70.2747V335.141H68.4267V331.613ZM75.5387 347.685C76.8267 347.685 77.7227 347.387 78.2267 346.789C78.7493 346.173 79.0107 345.221 79.0107 343.933V338.557C79.0107 337.437 78.7493 336.588 78.2267 336.009C77.7227 335.431 76.8267 335.141 75.5387 335.141H73.9707V347.685H75.5387ZM95.4552 349.197C95.0819 350.075 94.5592 350.7 93.8872 351.073C93.2152 351.428 92.4312 351.605 91.5352 351.605C90.6952 351.605 89.9019 351.447 89.1552 351.129C88.4272 350.812 87.7832 350.345 87.2232 349.729C86.6632 349.113 86.2152 348.367 85.8792 347.489C85.5619 346.612 85.4032 345.613 85.4032 344.493V344.045C85.4032 342.944 85.5619 341.955 85.8792 341.077C86.1965 340.2 86.6259 339.453 87.1672 338.837C87.7085 338.221 88.3339 337.755 89.0432 337.437C89.7712 337.101 90.5459 336.933 91.3672 336.933C92.3565 336.933 93.1499 337.101 93.7472 337.437C94.3632 337.773 94.8485 338.296 95.2032 339.005H95.7072V337.325H99.2352V347.013C99.2352 347.573 99.4872 347.853 99.9912 347.853H100.523V351.213H98.1152C97.4805 351.213 96.9579 351.027 96.5472 350.653C96.1552 350.28 95.9592 349.795 95.9592 349.197H95.4552ZM92.3192 348.245C93.3459 348.245 94.1672 347.909 94.7832 347.237C95.3992 346.547 95.7072 345.613 95.7072 344.437V344.101C95.7072 342.925 95.3992 342.001 94.7832 341.329C94.1672 340.639 93.3459 340.293 92.3192 340.293C91.2925 340.293 90.4712 340.639 89.8552 341.329C89.2392 342.001 88.9312 342.925 88.9312 344.101V344.437C88.9312 345.613 89.2392 346.547 89.8552 347.237C90.4712 347.909 91.2925 348.245 92.3192 348.245ZM102.632 337.325H106.44L109.716 349.533H110.22L113.496 337.325H117.304L113.328 351.213H106.608L102.632 337.325ZM121.008 347.853H125.712V340.685H121.344V337.325H129.24V347.853H133.272V351.213H121.008V347.853ZM130.108 333.209C130.108 333.583 130.034 333.937 129.884 334.273C129.754 334.591 129.567 334.871 129.324 335.113C129.082 335.337 128.792 335.524 128.456 335.673C128.139 335.804 127.803 335.869 127.448 335.869C127.075 335.869 126.73 335.804 126.412 335.673C126.095 335.524 125.815 335.337 125.572 335.113C125.33 334.871 125.134 334.591 124.984 334.273C124.854 333.937 124.788 333.583 124.788 333.209C124.788 332.836 124.854 332.491 124.984 332.173C125.134 331.837 125.33 331.557 125.572 331.333C125.815 331.091 126.095 330.904 126.412 330.773C126.73 330.624 127.075 330.549 127.448 330.549C127.803 330.549 128.139 330.624 128.456 330.773C128.792 330.904 129.082 331.091 129.324 331.333C129.567 331.557 129.754 331.837 129.884 332.173C130.034 332.491 130.108 332.836 130.108 333.209ZM147.869 349.197H147.365C147.215 349.515 147.029 349.823 146.805 350.121C146.599 350.401 146.319 350.653 145.965 350.877C145.629 351.101 145.218 351.279 144.733 351.409C144.266 351.54 143.697 351.605 143.025 351.605C142.166 351.605 141.363 351.456 140.617 351.157C139.889 350.84 139.245 350.383 138.685 349.785C138.143 349.169 137.714 348.423 137.397 347.545C137.098 346.668 136.949 345.66 136.949 344.521V344.017C136.949 342.897 137.107 341.899 137.425 341.021C137.761 340.144 138.209 339.407 138.769 338.809C139.347 338.193 140.01 337.727 140.757 337.409C141.522 337.092 142.325 336.933 143.165 336.933C144.285 336.933 145.171 337.148 145.825 337.577C146.478 337.988 146.991 338.576 147.365 339.341H147.869V331.613H151.397V351.213H147.869V349.197ZM144.173 348.245C145.274 348.245 146.161 347.9 146.833 347.209C147.523 346.5 147.869 345.576 147.869 344.437V344.101C147.869 342.963 147.523 342.048 146.833 341.357C146.161 340.648 145.274 340.293 144.173 340.293C143.071 340.293 142.175 340.639 141.485 341.329C140.813 342.001 140.477 342.925 140.477 344.101V344.437C140.477 345.613 140.813 346.547 141.485 347.237C142.175 347.909 143.071 348.245 144.173 348.245Z" fill="white"/>
<rect x="-1.38184" y="-1.78674" width="224" height="301" fill="white" stroke="black" stroke-width="4"/>
<mask id="mask0_412_19307" style="mask-type:alpha" maskUnits="userSpaceOnUse" x="-4" y="-4" width="229" height="306">
<rect x="-1.38184" y="-1.78674" width="224" height="301" fill="white" stroke="white" stroke-width="4"/>
</mask>
<g mask="url(#mask0_412_19307)">
<path fill-rule="evenodd" clip-rule="evenodd" d="M181.173 184.85C179.046 176.604 177.09 173.108 173.311 170.242C169.776 167.561 164.617 165.309 157.089 163.664C149.248 162.294 149.025 158.221 147.059 151.674C146.486 149.706 143.643 149.183 142.417 150.601C142.244 150.415 142.064 150.244 141.877 150.089C142.044 149.151 140.677 146.461 140.722 145.563C141.199 136.191 138.132 131.485 130.478 129.736C128.813 129.355 117.506 129.131 115.883 129.58C108.787 131.541 101.801 137.766 102.87 145.266C100.643 148.175 98.463 149.951 95.0266 150.889C87.3791 151.859 79.7323 152.722 72.0828 153.461C57.109 155.808 43.0699 163.73 33.4745 175.283C32.5895 176.349 32.3338 177.797 33.1149 178.934C32.503 181.553 29.0588 187.907 31.7688 189.703C27.3123 200.356 17.0586 220.947 17.0393 226.829C16.9585 251.542 19.6294 283.709 44.0283 297.385C45.0052 298.345 45.145 299.407 45.568 300.835C46.6406 305.334 50.5364 308.549 54.8003 308.287C75.8054 308.754 96.1503 306.192 117.156 306.068C126.419 306.014 137.559 307.395 145.607 308.316C153.654 309.237 161.777 308.423 169.499 306.068C170.15 307.093 171.467 307.69 172.802 307.395C180.808 305.806 187.282 300.875 192.921 295.486C194.644 292.353 201.373 283.427 198.698 280.319C201.123 270.075 200.997 259.067 196.688 249.311C197.299 247.523 196.186 245.558 196.688 243.711C197.052 242.375 197.983 241.822 198.452 240.499C199.111 238.637 198.394 236.139 197.651 234.239C197.347 233.292 198.211 232.272 198.452 231.306C199.591 226.748 196.982 227.15 195.101 224.103C195.129 224.093 195.618 221.918 195.616 221.929C195.904 220.376 195.182 218.386 194.553 217.09C194.128 216.213 193.216 215.665 192.311 215.766C193.223 212.672 194.376 210.098 195.616 207.117C197.809 201.863 200.585 196.832 203.734 192.076C205.023 190.129 203.291 187.873 201.204 187.74C194.45 187.311 187.769 186.339 181.173 184.85Z" fill="white"/>
<path fill-rule="evenodd" clip-rule="evenodd" d="M161.46 224.582C158.758 223.523 155.849 222.938 152.925 222.711C154.499 222.435 156.078 222.169 157.67 222.033C158.78 221.937 159.81 221.947 160.644 222.789C161.201 223.35 161.462 224.072 161.828 224.736C161.709 224.682 161.584 224.631 161.46 224.582ZM190.457 214.682C186.033 214.907 181.603 215.958 177.601 217.863C175.963 218.644 174.48 219.771 174.045 221.625C173.826 222.572 173.879 223.55 173.996 224.507C174.084 225.231 174.106 226.156 174.736 226.646C174.843 226.729 174.958 226.792 175.077 226.839C173.601 227.505 172.195 228.305 170.946 229.129C169.804 229.883 168.63 231.045 168.103 232.355C168.059 232.206 168.015 232.067 167.971 231.935C167.073 229.281 165.689 227.107 163.51 225.646C163.895 225.473 164.161 225.063 164.037 224.497C163.519 222.133 161.335 220.078 158.868 220.225C156.166 220.383 153.265 221.366 150.821 222.608C149.931 222.589 149.042 222.601 148.164 222.64C148.013 222.645 148.02 222.85 148.164 222.867C148.877 222.957 149.589 223.057 150.302 223.174C151.996 223.445 153.684 223.789 155.336 224.216C157.318 224.729 159.368 225.243 161.221 226.138C164.813 227.878 167.036 232.426 166.58 236.383C166.504 237.032 166.253 238.993 165.352 238.791C164.591 238.62 164.288 237.032 164.022 236.444C163.31 234.882 162.026 233.862 160.486 233.172C158.678 232.36 156.742 231.811 154.868 231.172C153.806 230.808 152.745 230.444 151.681 230.083C150.592 229.71 149.558 229.195 148.398 229.456C147.698 229.615 147.617 230.449 148.01 230.928C148.608 231.657 149.497 231.872 150.358 232.172C151.495 232.567 152.63 232.962 153.765 233.357C155.519 233.967 157.357 234.482 159.068 235.229L159.014 235.351C158.875 235.312 158.711 235.451 158.739 235.621C158.995 237.2 159.351 239.025 158.956 240.606C158.643 241.86 157.543 243.248 156.113 242.879C156.337 242.674 156.42 242.321 156.269 241.994C155.702 240.784 148.284 236.007 147.622 237.781C147.6 237.844 147.668 237.89 147.722 237.881C148.286 237.763 149.231 238.725 149.682 239.03C150.333 239.469 150.995 239.898 151.639 240.349C152.345 240.843 153.033 241.36 153.704 241.894C154.231 242.314 154.629 242.75 155.234 242.963C154.917 243.114 154.665 243.394 154.558 243.753C154.285 244.687 153.758 245.48 152.842 245.893C151.883 246.322 150.802 246.051 149.792 246.156C148.415 246.295 147.215 246.949 146.212 247.883C144.106 249.85 143.049 253.314 140.103 254.243C138.344 254.797 136.391 254.448 134.61 254.197C132.621 253.916 130.683 253.694 128.679 253.987C126.761 254.268 124.948 254.931 123.196 255.741C121.553 256.5 119.738 257.359 118.281 258.491C117.98 257.566 117.678 256.651 117.448 255.707C116.907 253.475 116.614 251.201 116.543 248.908C116.477 246.725 116.599 244.531 116.787 242.357C116.88 241.272 117.026 240.191 117.119 239.105C117.143 238.832 117.192 238.539 117.229 238.247C119.83 236.712 122.563 235.536 125.319 234.326C125.326 234.324 125.334 234.319 125.341 234.316C125.426 234.277 125.509 234.241 125.595 234.204C125.592 234.199 125.59 234.194 125.585 234.189C125.9 233.997 126.119 233.74 126.251 233.453C130.222 230.82 133.541 227.227 136.015 223.035C137.053 221.279 138.051 219.456 139.408 217.917C140.852 216.275 142.568 215.299 144.691 214.792C147.173 214.197 149.731 213.84 152.274 213.638C153.662 213.528 155.214 213.357 156.728 213.365C157.782 213.372 158.814 213.462 159.761 213.723C161.164 214.109 161.984 215.175 162.865 216.253C163.707 217.288 164.544 218.324 165.33 219.403C166.074 220.425 166.777 221.481 167.388 222.589C167.754 223.252 168.093 223.936 168.378 224.641C168.478 224.89 168.61 225.172 168.671 225.431C168.732 225.692 168.62 225.968 168.913 225.968C167.705 225.985 167.717 227.915 168.918 227.844C173.618 227.571 166.885 218.398 165.901 217.119C164.508 215.309 163.07 212.947 160.84 212.106C160.808 212.093 160.774 212.081 160.742 212.071C161.391 211.457 161.904 210.72 162.394 209.971C162.9 209.2 163.502 208.317 163.668 207.402C163.773 206.819 163.048 206.487 162.704 206.997C162.204 207.741 161.962 208.683 161.589 209.5C161.208 210.329 160.745 211.113 160.379 211.949C159.498 211.679 158.546 211.554 157.577 211.513C158.8 209.859 160.888 206.668 161.14 206.258C162.297 204.36 163.397 202.403 164.449 200.444C165.586 198.321 166.56 196.111 167.649 193.964C168.266 192.747 168.888 191.52 169.574 190.339C169.811 189.934 170.065 189.529 170.353 189.161C170.409 189.088 170.48 189.027 170.546 188.958C170.621 188.917 170.699 188.87 170.743 188.846C171.138 188.619 171.278 188.092 171.556 187.758C172 187.219 172.522 187.155 173.191 187.148C174.616 187.133 176.046 187.189 177.469 187.228C179.561 187.287 181.65 187.37 183.739 187.48C184.371 187.514 185 187.548 185.632 187.587C188.671 187.768 191.707 188.004 194.735 188.295C197.415 188.551 200.095 188.968 202.777 189.168C199.145 197.792 195.118 206.26 190.559 214.433C190.513 214.516 190.479 214.599 190.457 214.682ZM170.309 236.9C169.723 237.168 169.154 237.502 168.625 237.883C168.713 237.29 168.735 236.666 168.71 236.039C169.147 236.507 169.706 236.775 170.309 236.9ZM195.311 222.064C195.27 222.069 195.231 222.091 195.211 222.133C194.401 223.804 194.74 225.67 196.063 226.98C196.756 227.663 198.267 228.434 198.218 229.556C198.176 230.464 197.188 231.225 196.766 231.974C196.373 232.672 196.226 233.438 196.541 234.194C196.944 235.163 198.069 235.548 198.455 236.5C198.943 237.707 198.15 239.164 197.593 240.215C197.076 241.189 196.407 242.162 195.963 243.192C192.988 244.731 190.325 247.093 188.036 249.491C185.53 252.114 183.38 255.2 179.399 255.122C179.002 255.114 178.699 255.324 178.518 255.614C177.411 255.666 176.3 255.688 175.192 255.693C173.245 255.702 171.297 255.683 169.352 255.622C169.215 255.151 169.316 254.512 169.308 254.114C169.284 252.833 169.272 251.555 169.218 250.274C169.203 249.918 169.189 249.559 169.174 249.203C169.874 250.469 171.241 251.045 172.798 250.957C175.302 250.811 177.82 250.401 180.3 250.033C181.606 249.84 182.909 249.62 184.21 249.386C185.279 249.196 186.787 249.245 187.534 248.388C187.709 248.188 187.719 247.822 187.443 247.688C186.704 247.324 186.238 247.527 185.425 247.683C184.434 247.876 183.441 248.059 182.445 248.23C180.534 248.561 178.619 248.869 176.698 249.14C175.605 249.293 174.509 249.445 173.413 249.564C172.456 249.667 171.378 249.806 170.607 249.086C169.052 247.632 169.923 245.195 170.907 243.726C170.926 243.697 170.926 243.67 170.919 243.645C171.846 243.428 172.771 243.175 173.694 242.997C175.468 242.655 177.254 242.367 179.043 242.111C182.718 241.586 186.418 241.24 190.113 240.891C191.028 240.803 191.038 239.364 190.113 239.45C184.805 239.935 179.47 240.396 174.233 241.418C172.92 241.672 171.617 241.96 170.321 242.284C169.708 242.436 169.052 242.672 168.41 242.68C168.371 242.68 168.332 242.68 168.293 242.677C167.036 242.638 166.853 241.562 167.544 240.667C167.629 240.557 167.717 240.447 167.807 240.342C169.028 238.888 170.548 237.917 172.114 236.912C173.869 236.673 175.619 236.141 177.337 235.751C181.579 234.785 185.82 233.819 190.064 232.855C190.896 232.665 190.543 231.386 189.71 231.574C186.489 232.304 183.268 233.033 180.046 233.762L175.331 234.831C174.389 235.043 173.213 235.47 172.105 235.624C171.558 235.7 171.029 235.709 170.55 235.597C169.006 235.231 168.927 233.301 169.594 232.155C170.34 230.867 171.751 230.061 173.003 229.332C175.173 228.066 177.481 227.156 179.736 226.107C180.136 226.019 180.537 225.931 180.937 225.843C183.265 225.331 185.925 225.08 188.117 224.141C188.773 223.862 188.414 222.828 187.765 222.842C186.064 222.879 184.285 223.484 182.623 223.843C180.825 224.233 179.024 224.621 177.225 225.009C177.044 225.048 175.976 225.389 175.814 225.314C175.712 225.265 175.675 224.909 175.641 224.675C175.531 223.904 175.451 223.094 175.57 222.32C175.834 220.586 177.281 219.771 178.745 219.105C182.006 217.624 185.581 216.697 189.139 216.326C189.959 216.241 190.779 216.187 191.604 216.16C192.573 216.131 193.371 215.96 193.862 216.914C194.633 218.417 195.057 220.349 195.311 222.064ZM190.783 276.553C190.073 274.097 190.266 271.474 189.779 268.969C189.528 267.676 189.185 266.394 188.811 265.132C188.509 264.113 188.005 263.029 187.948 261.965C187.945 261.894 188.028 261.853 188.086 261.886C189.088 262.459 189.858 263.7 190.429 264.673C191.114 265.838 191.636 267.058 192.058 268.341C192.898 270.896 193.587 273.978 192.504 276.553C192.182 277.319 191.049 277.473 190.783 276.553ZM168.827 244.019C169.428 243.96 170.028 243.846 170.628 243.711C169.957 244.365 169.337 245.153 168.993 246.027C168.94 245.356 168.871 244.687 168.781 244.021C168.796 244.021 168.813 244.021 168.827 244.019ZM163.058 295.147C161.999 294.408 161.228 293.376 160.33 292.465C159.447 291.569 160.827 290.189 161.71 291.085C162.476 291.862 163.141 292.833 164.043 293.462C164.477 293.764 164.678 294.311 164.393 294.797C164.142 295.226 163.49 295.449 163.058 295.147ZM157.154 266.762C159.086 265.927 160.987 265.017 163.01 264.416C164.218 264.056 164.73 265.94 163.529 266.297C161.666 266.852 159.919 267.678 158.139 268.447C156.997 268.941 156.004 267.259 157.154 266.762ZM136.744 266.178C136.271 265.012 138.161 264.51 138.627 265.659C139.163 266.982 139.777 268.271 140.314 269.593C140.786 270.759 138.897 271.262 138.431 270.112C137.895 268.79 137.28 267.501 136.744 266.178ZM116.599 289.457C116.285 289.876 115.76 290.104 115.264 289.807C114.848 289.558 114.595 288.897 114.914 288.472C115.844 287.232 116.787 286.007 117.877 284.902C118.762 284.006 120.141 285.387 119.258 286.282C118.284 287.269 117.431 288.349 116.599 289.457ZM113.719 158.839C114.615 159.451 115.4 160.195 116.166 160.96C117.056 161.849 115.675 163.229 114.785 162.339C114.14 161.695 113.489 161.041 112.733 160.525C112.297 160.227 112.101 159.672 112.383 159.19C112.636 158.757 113.283 158.542 113.719 158.839ZM143.027 190.247C142.52 191.261 142.064 192.255 142.035 193.408C142.004 194.664 140.052 194.664 140.083 193.408C140.12 191.9 140.677 190.591 141.341 189.262C141.903 188.136 143.586 189.126 143.027 190.247ZM153.78 165.023C154.829 164.323 155.806 166.014 154.766 166.708C153.922 167.27 153.078 167.832 152.235 168.394C151.186 169.093 150.209 167.402 151.25 166.709C152.093 166.147 152.936 165.585 153.78 165.023ZM107.139 209.125C106.96 210.365 105.079 209.835 105.256 208.606C105.531 206.708 105.866 204.834 106.381 202.985C106.718 201.775 108.601 202.292 108.263 203.504C107.748 205.353 107.413 207.227 107.139 209.125ZM100.294 231.482C99.0371 231.455 99.0369 229.504 100.294 229.53C101.431 229.554 102.549 229.854 103.646 230.127C104.866 230.432 104.346 232.314 103.127 232.009C102.199 231.778 101.255 231.503 100.294 231.482ZM97.7668 276.518C97.3351 276.728 96.8922 276.917 96.4558 277.117C95.5819 277.516 94.7085 277.916 93.8353 278.317C92.0162 279.152 90.198 279.989 88.3816 280.83C84.7453 282.512 81.0809 284.136 77.4359 285.8C73.7188 287.498 70.0115 289.218 66.3088 290.946C64.5644 291.761 62.8068 292.545 61.0526 293.338C59.5527 294.016 57.6987 295.2 56.0521 295.312C55.9674 295.318 55.9391 295.211 55.9874 295.156C56.6095 294.449 57.6018 294.037 58.4193 293.578C59.2545 293.108 60.1052 292.666 60.952 292.218C62.7175 291.283 64.4851 290.355 66.2676 289.453C69.8331 287.649 73.4055 285.858 76.9785 284.07C80.6226 282.246 84.2621 280.409 87.9381 278.65C89.6689 277.822 91.4014 276.996 93.1349 276.173C94.0739 275.727 95.0135 275.281 95.9531 274.837C96.3589 274.645 96.7607 274.438 97.1755 274.266C97.7268 274.038 98.1459 274.084 98.7145 273.944C99.6419 273.715 100.043 274.894 99.3314 275.407C98.7452 275.83 98.4368 276.192 97.7668 276.518ZM84.7331 296.531C84.5328 296.044 84.9523 295.452 85.415 295.33C85.9692 295.185 86.4136 295.521 86.6159 296.012C87.1511 297.314 87.9135 298.508 88.8948 299.516C89.7719 300.418 88.3921 301.798 87.5143 300.896C86.2845 299.632 85.4011 298.155 84.7331 296.531ZM75.1443 265.203C74.2543 264.314 75.6351 262.934 76.5249 263.823L79.0551 266.352C79.9451 267.242 78.5641 268.622 77.6745 267.732L75.1443 265.203ZM49.1851 261.079C47.366 261.613 45.2443 262.103 44.004 263.654C43.9435 263.73 43.8417 263.633 43.8781 263.557C45.4659 260.267 50.0193 259.112 53.1719 257.96C55.4017 257.144 57.6896 256.468 59.9968 255.864C59.7662 253.233 60.4022 250.413 60.6233 247.794C60.8593 244.999 61.0514 242.196 61.15 239.392C61.2508 236.532 61.2752 233.652 61.181 230.791C61.0872 227.94 60.717 225.124 60.555 222.283C60.5394 222.008 60.922 221.995 61.0045 222.222C61.9626 224.859 62.3719 227.779 62.6838 230.559C63.005 233.423 63.1116 236.279 63.0706 239.159C63.0281 242.121 62.8558 245.076 62.6194 248.028C62.5074 249.427 62.3773 250.825 62.2545 252.223C62.1608 253.29 62.1174 254.349 61.8997 255.382C63.2912 255.041 64.6859 254.718 66.0763 254.404C70.5096 253.404 74.9615 252.476 79.3763 251.394C81.5434 250.863 83.6795 250.228 85.8369 249.663C87.8683 249.132 90.0125 248.487 92.0982 248.25C92.8425 248.165 92.9372 249.183 92.4445 249.528C90.7493 250.718 88.498 251.547 86.54 252.213C84.575 252.881 82.5323 253.362 80.5182 253.857C76.3179 254.889 72.0779 255.734 67.8441 256.613C63.6163 257.492 59.3804 258.364 55.2001 259.448C53.187 259.97 51.1807 260.494 49.1851 261.079ZM39.2166 208.865C38.1296 209.503 37.1483 207.815 38.2314 207.18C39.6485 206.348 41.1589 205.723 42.6815 205.114C43.85 204.647 44.3528 206.535 43.2006 206.996C41.8323 207.544 40.49 208.118 39.2166 208.865ZM35.2806 281.375C34.1907 282.007 33.2087 280.32 34.2954 279.69C35.8217 278.806 37.4931 278.216 39.0748 277.442C40.2001 276.891 41.1885 278.575 40.06 279.127C38.4786 279.901 36.8069 280.491 35.2806 281.375ZM33.5103 240.215C34.5641 241.216 35.9705 241.687 37.2967 242.213C38.453 242.671 37.9458 244.557 36.7776 244.095C35.1254 243.44 33.4425 242.842 32.1297 241.595C31.2165 240.728 32.5995 239.35 33.5103 240.215ZM45.1686 184.316C46.3271 184.771 45.8197 186.657 44.6495 186.199C43.3517 185.69 42.0114 185.302 40.7136 184.793C39.5553 184.339 40.0624 182.452 41.2326 182.911C42.5305 183.42 43.8708 183.807 45.1686 184.316ZM65.7351 162.113C66.9661 161.906 67.4903 163.787 66.2542 163.996C64.7206 164.255 63.2104 164.557 61.7559 165.12C60.5813 165.574 60.0774 163.686 61.2368 163.238C62.6916 162.675 64.2018 162.372 65.7351 162.113ZM72.5305 216.172C71.4018 215.617 72.3922 213.935 73.5158 214.487C74.6999 215.069 75.9267 215.519 77.2187 215.794C78.4489 216.056 77.9249 217.937 76.6996 217.676C75.2456 217.366 73.8621 216.827 72.5305 216.172ZM78.9487 185.722C80.1641 185.389 80.678 187.272 79.4678 187.604C77.3385 188.187 75.1462 188.49 73.0013 189.009C71.7789 189.305 71.2617 187.422 72.4822 187.127C74.6271 186.608 76.8197 186.305 78.9487 185.722ZM106.176 176.166C107.412 176.395 106.885 178.275 105.657 178.048C104.35 177.806 103.025 177.802 101.699 177.802C100.441 177.801 100.443 175.849 101.699 175.85C103.205 175.851 104.692 175.891 106.176 176.166ZM194.974 186.362C191.785 186.058 188.59 185.814 185.391 185.631C185.242 185.623 185.096 185.614 184.946 185.606C184.93 185.572 184.908 185.54 184.885 185.506C183.841 183.974 183.072 182.442 182.406 180.71C181.769 179.06 181.152 177.36 180.171 175.872C179.052 174.176 177.541 172.85 175.885 171.7C174.881 172.375 173.949 173.165 173.097 174.003C172.199 174.885 170.818 173.505 171.716 172.623C172.474 171.878 173.282 171.191 174.137 170.569C173.15 169.97 172.143 169.406 171.16 168.845C167.478 166.745 163.707 164.803 159.859 163.027C158.07 162.2 156.259 161.465 154.436 160.721C153.455 160.322 152.486 159.807 151.505 159.343C151.576 158.65 151.368 157.874 150.836 157.418C150.443 157.084 150.138 156.959 149.67 156.723C149.565 156.686 149.501 156.664 149.472 156.652C149.494 156.657 149.558 156.676 149.662 156.711C149.911 156.826 149.931 156.791 149.721 156.611C149.709 156.216 148.93 155.381 148.752 154.974C148.132 153.576 147.94 152.097 147.024 150.824C145.763 149.07 143.644 148.406 141.67 149.001C141.465 146.891 141.411 144.688 140.616 142.805C140.594 142.754 140.523 142.731 140.491 142.787C139.661 144.2 139.591 145.774 139.527 147.403C139.466 148.933 139.525 150.497 139.725 152.017C139.598 152.114 139.469 152.207 139.334 152.297C138.705 152.712 138.026 153.032 137.314 153.268C135.957 153.717 134.534 153.912 133.111 153.981C129.438 154.156 125.653 153.785 122.041 153.156C118.388 152.519 112.787 151.563 109.536 149.736C107.391 148.531 105.412 147.059 103.406 145.635C104.133 143.292 104.319 140.775 103.587 138.796C103.499 138.56 103.128 138.516 103.057 138.796C102.598 140.684 102.464 142.583 101.854 144.449C101.844 144.476 101.834 144.505 101.825 144.532C101.634 144.403 101.444 144.276 101.254 144.149C100.814 143.858 100.216 144.076 99.9528 144.49C95.7379 151.129 89.0634 151.509 82.0544 152.695C74.3838 153.993 66.6747 155.393 59.2996 157.933C52.2467 160.363 45.5061 163.901 40.1664 169.185C38.9576 170.381 37.8272 171.656 36.7603 172.987C37.7926 173.117 38.8163 173.319 39.8269 173.637C41.0235 174.012 40.5093 175.896 39.3079 175.519C38.009 175.111 36.6958 174.909 35.3692 174.808C31.741 179.77 28.912 185.396 26.4657 190.934C21.7734 201.552 18.7192 212.859 17.3137 224.371C18.0854 223.909 18.871 223.469 19.6761 223.059C20.7948 222.49 21.7815 224.175 20.6615 224.744C19.4179 225.377 18.2098 226.074 17.0394 226.829C16.5281 231.869 16.33 236.94 16.45 242.004C16.7356 254.075 18.3658 266.5 22.0533 278.018C23.8617 283.671 26.2582 289.277 29.8286 294.054C31.4442 296.218 33.2794 298.169 35.4417 299.797C36.4886 300.587 37.5966 301.292 38.7656 301.888C40.2713 302.658 42.2335 302.912 43.5318 304.003C43.9589 304.362 44.2883 304.835 44.5373 305.369C44.3933 306.384 44.3762 307.401 44.6544 308.416C44.7423 308.733 44.9814 308.992 45.2767 309.116C45.2816 309.204 45.2816 309.289 45.2816 309.372C45.2816 309.411 45.3402 309.421 45.3475 309.382C45.3597 309.307 45.3719 309.231 45.3841 309.153C45.4793 309.185 45.5793 309.199 45.6818 309.199C49.3889 309.213 53.1006 309.123 56.8125 308.997C56.5255 308.118 56.2146 307.247 55.9162 306.368C55.5108 305.174 57.397 304.666 57.7987 305.849C58.148 306.877 58.513 307.895 58.8379 308.926C62.8151 308.779 66.7911 308.601 70.76 308.47C79.2015 308.189 87.6407 308.096 96.0844 307.919C109.197 307.641 122.405 307.072 135.539 307.628C135.993 306.665 136.501 305.723 136.983 304.773C137.552 303.651 139.236 304.64 138.669 305.758C138.334 306.418 137.987 307.07 137.657 307.73C140.317 307.868 142.974 308.05 145.626 308.299C150.15 308.723 154.631 309.477 159.151 309.946C163.746 310.424 168.242 310.339 172.8 309.58C173.62 309.443 174.104 308.948 174.304 308.333C174.311 308.331 174.316 308.326 174.321 308.318C174.555 308.045 174.775 307.819 175.002 307.621C175.273 307.445 175.566 307.296 175.91 307.165C176.551 306.921 177.22 306.772 177.899 306.672C178.645 306.56 179.402 306.55 180.149 306.457C180.778 306.377 181.393 306.257 182.008 306.111C183.114 305.847 184.163 305.503 185.208 305.047C186.118 304.649 186.94 304.079 187.717 303.456C189.322 302.283 190.713 300.785 191.929 299.228C192.637 298.318 193.303 297.374 193.908 296.391C194.962 294.688 195.86 292.919 196.768 291.136C197.098 290.607 197.398 290.066 197.673 289.514C195.899 288.991 194.108 288.565 192.227 288.535C190.969 288.515 190.97 286.563 192.227 286.583C194.384 286.618 196.424 287.121 198.452 287.722C198.55 287.459 198.645 287.195 198.733 286.928C198.974 286.369 199.175 285.796 199.34 285.215C199.438 284.951 199.536 284.688 199.633 284.424C199.853 283.512 200.073 282.597 200.295 281.682C200.736 280.218 201.085 278.733 201.342 277.227C201.556 276.237 201.722 275.239 201.835 274.229C202.176 271.782 202.454 269.34 202.474 266.866C202.445 265.341 202.347 263.819 202.181 262.304C202.11 261.274 201.991 260.25 201.83 259.232C201.62 257.72 201.412 256.222 201.063 254.729C200.802 253.719 200.541 252.709 200.28 251.699C199.628 249.594 198.86 247.529 197.974 245.512C197.925 245.385 197.678 245.107 197.53 245.104C197.417 245.102 197.261 245.204 197.312 245.341C197.317 245.353 197.322 245.368 197.327 245.38C197.276 245.265 197.227 245.148 197.176 245.034C197.132 244.926 196.961 244.712 196.829 244.714C196.822 244.714 196.814 244.714 196.805 244.716C196.839 244.692 196.871 244.66 196.902 244.624C197.779 243.587 198.347 242.223 198.974 241.023C199.494 240.032 199.985 238.988 200.126 237.868C200.251 236.885 200.082 235.917 199.465 235.121C198.762 234.216 197.439 233.792 198.174 232.484C199.009 230.996 200.236 229.705 199.013 228.015C198.391 227.153 197.405 226.68 196.673 225.931C195.831 225.065 195.431 223.906 195.453 222.723C195.504 222.752 195.572 222.738 195.597 222.664C196.305 220.527 195.792 218.181 195.067 216.099C194.672 214.97 193.835 214.66 192.861 214.604C197.078 206.37 201.024 198.004 204.541 189.446C204.658 189.165 204.773 188.885 204.887 188.604C205.058 188.185 204.697 187.626 204.28 187.533C201.239 186.867 198.071 186.655 194.974 186.362Z" fill="black"/>
<path fill-rule="evenodd" clip-rule="evenodd" d="M121.854 43.2748C135.712 43.2748 153.599 51.9643 155.124 60.8641C156.921 71.3522 166.547 111.596 164.373 124.502C162.2 137.407 150.487 146.698 131.745 146.698C113.002 146.698 99.0131 136.48 95.8011 132.972C92.5891 129.464 86.6365 116.938 86.6365 116.938C86.6365 116.938 76.6015 115.604 76.5539 107.427C76.5063 99.2492 83.0783 96.2741 83.0783 96.2741C83.0783 96.2741 80.7351 64.0024 86.6365 55.6004C92.538 47.1984 107.997 43.2748 121.854 43.2748Z" fill="white"/>
<path fill-rule="evenodd" clip-rule="evenodd" d="M154.276 59.428C154.266 59.2403 154.539 59.2184 154.59 59.3843C157.58 69.2576 159.423 76.952 161.363 87.0744L161.936 90.0521C163.467 97.994 165.013 105.947 166.319 113.928L166.396 114.404C167.05 118.535 167.428 122.706 166.607 126.846C165.841 130.715 163.747 134.262 161.029 137.088C155.774 142.548 148.472 145.958 141.127 147.483C137.412 148.254 133.581 148.551 129.796 148.283C127.909 148.151 126.025 147.885 124.178 147.493L123.974 147.449C122.111 147.047 120.459 146.568 119.47 144.816C119.221 144.375 119.321 143.618 119.843 143.392C120.829 142.967 121.554 142.789 122.63 142.911C123.658 143.028 124.661 143.338 125.676 143.531C127.616 143.899 129.588 144.084 131.562 144.128C135.44 144.214 139.328 143.728 143.035 142.572C149.404 140.584 155.877 136.78 159.598 131.091C163.976 124.398 162.233 116.276 161.073 108.884L161.038 108.661C159.864 101.106 158.702 93.5511 157.575 85.9915L157.094 82.7514C155.83 74.1906 154.637 68.0792 154.276 59.428ZM89.606 38.4739C92.785 36.3793 96.7354 35.8646 100.469 35.8935L100.937 35.8994C105.718 35.9722 129.785 36.5448 137.843 36.7209L139.76 36.7613C142.297 36.8092 147.414 36.8591 150.05 36.9073L150.203 36.9101C151.496 36.9345 152.789 36.9443 154.083 36.9857L154.273 36.9926C155.241 37.0339 156.048 37.1789 156.806 37.8616C157.192 38.2076 157.343 38.7353 157.308 39.238L157.302 39.3034L159.223 39.4718C160.527 39.587 161.216 40.7563 160.698 41.9395L160.672 41.9968C159.752 43.9583 159.049 49.6671 158.556 51.7774C158.298 52.8875 158.09 54.0146 157.968 55.149C157.87 56.0422 157.861 56.9373 157.363 57.7229C156.301 59.3989 153.314 59.3843 153.26 57.0105C153.258 56.9349 153.26 56.8617 153.268 56.7909C145.751 56.4616 135.489 56.4933 127.982 56.9422C120.971 57.3618 113.991 58.3133 107.121 59.7697C105.381 60.1381 103.646 60.5407 101.923 60.9774C100.51 61.3336 98.7748 61.5458 97.5106 62.3094C96.0952 63.1682 96.122 64.7076 96.2758 66.1738C96.4408 67.7279 96.716 66.9272 97.1059 68.3435L97.1299 68.433C97.5326 69.97 98.0304 71.4899 98.6894 72.9341C99.0652 73.7588 99.6707 74.5516 99.441 75.5007C99.3117 76.035 98.8892 76.6058 98.5015 76.9791C96.7343 78.6747 93.7474 77.5939 92.5467 79.9165C91.2901 82.3451 91.2589 85.635 91.1523 88.3223L91.1459 88.4797C91.0681 90.3314 91.0898 92.188 91.2118 94.0348C91.3216 95.7179 91.7704 97.3844 91.1947 99.0019C90.7747 100.178 89.4034 100.288 88.6859 99.3313C88.6036 99.2215 88.5281 99.109 88.4574 98.9957L88.3882 98.8824L88.3836 98.8848C88.4516 98.9922 88.5151 99.1022 88.5761 99.2142C88.642 99.3386 88.4785 99.4752 88.3784 99.3679C86.6896 97.5308 84.2223 97.8968 82.3114 99.1825C80.3762 100.49 79.6123 102.974 79.5122 105.201C79.4 107.672 79.6196 110.569 80.6495 112.852C81.0839 113.818 81.7035 114.706 82.7312 115.074C83.1976 115.24 83.6415 115.218 84.1271 115.257C84.6321 115.296 85.24 115.55 85.7303 115.516C86.3677 115.471 86.94 116.198 86.759 116.808L86.7458 116.848C86.7362 116.877 86.7262 116.907 86.7167 116.933C86.7409 116.955 86.7653 116.982 86.7824 117.021C88.6371 120.81 91.1801 124.182 93.9915 127.309C95.3999 128.873 96.9615 130.31 98.5942 131.64C99.3995 132.296 100.249 132.952 101.144 133.482C101.442 133.655 101.715 133.772 102.05 133.867C102.206 133.911 102.384 133.933 102.536 133.984L102.693 134.038C102.703 134.041 102.714 134.045 102.723 134.048C103.172 134.099 103.551 134.397 103.7 134.862C104.088 136.077 103.382 137.151 102.177 137.485C100.871 137.85 99.6397 137.209 98.6044 136.473L98.5356 136.424C96.4246 134.904 94.4796 133.199 92.7957 131.208C89.4644 127.278 87.3776 122.728 86.4117 117.695C86.1723 118.209 85.8501 118.658 85.2912 118.971C84.4224 119.458 83.3852 119.458 82.4335 119.295C80.5177 118.971 78.885 117.802 77.7942 116.221C76.6615 114.582 76.2396 112.591 75.9833 110.651C75.7295 108.709 75.6051 106.76 75.8589 104.813C76.2227 102.017 77.3964 99.2532 79.6782 97.7211C77.9699 94.0006 77.6697 89.8288 77.7917 85.7546C77.9406 80.7386 78.8069 75.6666 79.4732 70.697L81.3672 56.5689L81.4447 55.9993C81.9018 52.6757 82.4582 49.3345 83.7025 46.2028C84.9301 43.1166 86.7946 40.3256 89.606 38.4739ZM81.6355 105.311C84.7642 103.793 88.1442 105.191 89.8281 108.136C91.2922 110.696 86.939 112.388 86.2127 109.749L86.1918 109.668C85.7135 107.67 83.7658 105.943 81.7331 105.674C81.5647 105.65 81.44 105.406 81.6355 105.311Z" fill="black"/>
<path fill-rule="evenodd" clip-rule="evenodd" d="M142.33 124.294C142.704 123.643 143.566 123.04 144.355 123.133C147.889 123.547 147.883 127.83 146.518 130.33C145.308 132.547 142.805 133.848 140.299 133.658C137.666 133.458 135.423 131.911 134.436 129.449C133.783 127.821 133.482 124.814 135.218 123.72C135.251 123.7 135.304 123.705 135.329 123.734C136.162 124.703 136.195 126.156 136.924 127.234C137.602 128.237 138.655 129.065 139.889 129.193C140.81 129.289 141.743 128.956 142.103 128.129C142.298 127.682 142.276 127.439 142.203 127.131L142.136 126.864C141.905 125.926 141.802 125.213 142.33 124.294ZM143.275 105.512C145.118 106.632 147.926 109.243 145.943 112.019C143.609 114.467 140.25 111.661 138.594 110.391C137.059 109.408 135.334 111.938 136.758 113.086C148.722 121.941 153.577 105.805 144.207 104.196C143.175 104.018 142.792 105.166 143.275 105.512ZM123.814 97.8335C124.945 96.137 127.527 96.3868 128.15 98.4C128.487 99.4905 128.021 100.471 128.046 101.56C128.066 102.48 128.006 103.505 127.723 104.396C127.08 106.428 125.252 107.863 123.09 107.803C120.934 107.744 119.036 106.38 118.133 104.459C117.227 102.531 117.419 100.536 118.08 98.5754C118.112 98.4812 118.236 98.4356 118.31 98.5149C119.092 99.3454 119.664 100.222 120.256 101.152L120.863 102.105C121.327 102.823 122.001 103.74 122.867 103.682L122.997 103.67C123.237 103.649 123.201 103.697 123.386 103.369C123.472 103.217 123.456 102.935 123.498 102.756L123.512 102.696L123.505 102.663C123.486 102.576 123.468 102.413 123.453 102.129L123.45 102.067C123.387 100.74 123.012 99.0355 123.814 97.8335ZM152.487 98.9629C152.284 96.7931 155.336 96.3113 156.35 97.9168C156.88 98.7541 157.034 99.8058 157.151 100.802L157.205 101.275C157.325 102.299 157.373 103.363 156.929 104.318C156.229 105.822 154.706 106.616 153.065 106.491C151.497 106.37 150.066 105.461 149.312 104.082C148.64 102.851 147.971 100.447 148.788 99.163C148.837 99.0852 148.936 99.0752 149.003 99.1352C149.775 99.82 149.901 101.069 150.359 101.961C150.833 102.882 151.55 103.778 152.638 103.918C153.679 104.052 154.076 103.484 153.811 102.492C153.468 101.212 152.616 100.341 152.487 98.9629ZM124.638 84.9334L125.137 84.7423C126.847 84.0966 129.194 83.3503 130.584 84.7402C131.442 85.5972 131.605 86.8597 130.993 87.9056C130.252 89.1725 128.921 89.2038 127.637 89.3904C126.176 89.6027 124.69 90.0062 123.329 90.5814C121.797 91.2297 120.375 92.0377 118.982 92.9401C117.657 93.7976 116.338 95.1992 114.753 95.4634C114.688 95.4742 114.615 95.4464 114.598 95.3754C114.238 93.8262 115.238 92.3016 116.131 91.093C117.211 89.6297 118.52 88.4287 119.983 87.3518C121.394 86.3123 123.008 85.5611 124.638 84.9334ZM155.697 90.4413L155.85 90.4146C156.886 90.2421 157.826 90.2818 158.607 91.1027C159.204 91.729 159.434 92.5406 159.149 93.3687C158.887 94.1325 158.3 94.9086 157.449 95.0686C154.574 95.6092 151.39 95.52 148.501 95.1106C147.179 94.9232 145.846 94.6939 144.558 94.3323L143.966 94.1607C142.891 93.8538 141.661 93.5331 140.88 92.7429C140.599 92.4589 140.761 92.0525 141.097 91.921C142.459 91.3877 144.326 91.6714 145.779 91.6297C147.469 91.5814 149.161 91.4547 150.843 91.2803C152.486 91.1095 154.076 90.7385 155.697 90.4413Z" fill="black"/>
<path fill-rule="evenodd" clip-rule="evenodd" d="M178.459 103.227C177.942 102.449 176.475 102.922 176.853 103.903C180.959 113.215 179.059 120.459 167.521 119.192C160.564 118.74 153.809 112.591 146.822 115.651C145.021 117.097 143.835 117.277 141.932 115.712C134.38 112.408 125.828 118.297 118.241 119.092C106.369 120.259 99.9125 116.289 105.909 104.115C106.285 103.288 105.194 102.197 104.525 103.046C96.2447 112.679 95.8288 125.612 109.158 130.602C118.94 133.859 137.649 136.554 144.363 126.736C148.649 133.825 157.81 134.25 165.173 132.981C182.954 131.34 188.402 117.53 178.459 103.227Z" fill="black"/>
<path fill-rule="evenodd" clip-rule="evenodd" d="M165.116 106.998C162.153 110.059 157.207 110.937 153.265 109.296C143.143 105.068 148.097 91.8815 155.904 88.3403C156.879 88.0974 158.181 87.5209 159.369 87.3901C159.476 87.3374 159.71 87.4899 159.994 87.3457C168.601 88.3064 170.561 101.664 165.116 106.998ZM132.468 107.782C129.145 112.188 122.967 113.547 117.919 111.499C107.947 107.573 111.484 95.8799 118.307 91.2958C132.719 85.8819 138.671 99.6572 132.468 107.782ZM110.851 98.0185C110.841 98.0141 110.832 98.0119 110.823 98.0075C110.875 97.9843 110.928 97.9612 110.981 97.9375C110.964 97.9821 110.945 98.0263 110.928 98.0709C110.902 98.0531 110.88 98.0324 110.851 98.0185ZM171.977 93.2555C171.163 93.2572 169.988 93.3909 169.314 93.9552C167.653 88.3555 161.522 83.1729 156.191 86.9519C151.992 88.3018 148.876 91.2955 147.105 95.2756C143.912 93.377 138.892 94.1877 136.123 96.6984C134.31 90.7088 129.847 88.6114 124.536 88.3018C118.738 87.3525 112.96 92.9811 111.157 97.4964C109.657 97.3259 107.417 96.8489 106.007 97.7738C96.8535 95.3741 80.8502 94.0511 78.9893 95.3844C77.6632 95.893 76.9354 99.0222 78.7878 99.191C80.4019 98.9619 78.5993 96.8982 80.2264 96.673C88.8956 96.1358 97.3116 97.8811 105.889 98.6135C106.655 99.6433 109.129 99.9878 110.449 99.574C108.37 107.234 112.858 112.445 119.583 114.006C129.996 116.397 139.055 107.085 136.332 97.3995C139.486 95.8308 143.115 95.8982 146.551 96.7245C140.809 117.85 174.843 116.902 169.527 94.6791C173.065 96.4381 173.833 93.6105 171.977 93.2555Z" fill="black"/>
</g>
</g>
<defs>
<clipPath id="clip0_412_19307">
<rect width="221" height="385" fill="white"/>
</clipPath>
</defs>
</svg>
