<svg width="221" height="385" viewBox="0 0 221 385" fill="none" xmlns="http://www.w3.org/2000/svg">
<g clip-path="url(#clip0_412_19301)">
<path d="M73.0424 345.333C73.0424 347.368 72.4917 348.927 71.3904 350.009C70.2891 351.073 68.7771 351.605 66.8544 351.605C65.8651 351.605 64.9691 351.475 64.1664 351.213C63.3637 350.933 62.6731 350.532 62.0944 350.009C61.5157 349.468 61.0677 348.815 60.7504 348.049C60.4331 347.265 60.2744 346.36 60.2744 345.333V343.485H63.9704V345.333C63.9704 346.211 64.2131 346.901 64.6984 347.405C65.1837 347.891 65.8651 348.133 66.7424 348.133C67.5637 348.133 68.1984 347.891 68.6464 347.405C69.1131 346.92 69.3464 346.229 69.3464 345.333V335.085H67.3304V331.613H74.7224V335.085H73.0424V345.333ZM86.8829 349.197C86.5096 350.075 85.9869 350.7 85.3149 351.073C84.6429 351.428 83.8589 351.605 82.9629 351.605C82.1229 351.605 81.3296 351.447 80.5829 351.129C79.8549 350.812 79.2109 350.345 78.6509 349.729C78.0909 349.113 77.6429 348.367 77.3069 347.489C76.9896 346.612 76.8309 345.613 76.8309 344.493V344.045C76.8309 342.944 76.9896 341.955 77.3069 341.077C77.6243 340.2 78.0536 339.453 78.5949 338.837C79.1363 338.221 79.7616 337.755 80.4709 337.437C81.1989 337.101 81.9736 336.933 82.7949 336.933C83.7843 336.933 84.5776 337.101 85.1749 337.437C85.7909 337.773 86.2763 338.296 86.6309 339.005H87.1349V337.325H90.6629V347.013C90.6629 347.573 90.9149 347.853 91.4189 347.853H91.9509V351.213H89.5429C88.9083 351.213 88.3856 351.027 87.9749 350.653C87.5829 350.28 87.3869 349.795 87.3869 349.197H86.8829ZM83.7469 348.245C84.7736 348.245 85.5949 347.909 86.2109 347.237C86.8269 346.547 87.1349 345.613 87.1349 344.437V344.101C87.1349 342.925 86.8269 342.001 86.2109 341.329C85.5949 340.639 84.7736 340.293 83.7469 340.293C82.7203 340.293 81.8989 340.639 81.2829 341.329C80.6669 342.001 80.3589 342.925 80.3589 344.101V344.437C80.3589 345.613 80.6669 346.547 81.2829 347.237C81.8989 347.909 82.7203 348.245 83.7469 348.245ZM108.591 346.117C108.274 347.76 107.518 349.085 106.323 350.093C105.147 351.101 103.57 351.605 101.591 351.605C100.565 351.605 99.6035 351.447 98.7075 351.129C97.8301 350.812 97.0648 350.355 96.4115 349.757C95.7581 349.16 95.2448 348.423 94.8715 347.545C94.4981 346.668 94.3115 345.669 94.3115 344.549V344.213C94.3115 343.093 94.4981 342.085 94.8715 341.189C95.2448 340.293 95.7581 339.528 96.4115 338.893C97.0835 338.259 97.8581 337.773 98.7355 337.437C99.6315 337.101 100.583 336.933 101.591 336.933C103.533 336.933 105.101 337.437 106.295 338.445C107.509 339.453 108.274 340.779 108.591 342.421L105.119 343.317C105.007 342.496 104.653 341.787 104.055 341.189C103.458 340.592 102.618 340.293 101.535 340.293C101.031 340.293 100.555 340.387 100.107 340.573C99.6595 340.76 99.2675 341.031 98.9315 341.385C98.5955 341.721 98.3248 342.141 98.1195 342.645C97.9328 343.131 97.8395 343.681 97.8395 344.297V344.465C97.8395 345.081 97.9328 345.632 98.1195 346.117C98.3248 346.584 98.5955 346.976 98.9315 347.293C99.2675 347.611 99.6595 347.853 100.107 348.021C100.555 348.171 101.031 348.245 101.535 348.245C102.618 348.245 103.439 347.975 103.999 347.433C104.578 346.892 104.951 346.164 105.119 345.249L108.591 346.117ZM116.832 342.421H117.504L121.2 337.325H125.064V337.493L120.584 343.849V344.353L125.512 351.045V351.213H121.48L117.504 345.781H116.832V351.213H113.304V331.613H116.832V342.421ZM142.937 344.437C142.937 345.595 142.741 346.621 142.349 347.517C141.957 348.395 141.425 349.141 140.753 349.757C140.081 350.355 139.306 350.812 138.429 351.129C137.57 351.447 136.665 351.605 135.713 351.605C134.761 351.605 133.846 351.447 132.969 351.129C132.11 350.812 131.345 350.355 130.673 349.757C130.001 349.141 129.469 348.395 129.077 347.517C128.685 346.621 128.489 345.595 128.489 344.437V344.101C128.489 342.963 128.685 341.955 129.077 341.077C129.469 340.181 130.001 339.425 130.673 338.809C131.345 338.193 132.11 337.727 132.969 337.409C133.846 337.092 134.761 336.933 135.713 336.933C136.665 336.933 137.57 337.092 138.429 337.409C139.306 337.727 140.081 338.193 140.753 338.809C141.425 339.425 141.957 340.181 142.349 341.077C142.741 341.955 142.937 342.963 142.937 344.101V344.437ZM135.713 348.245C136.217 348.245 136.693 348.161 137.141 347.993C137.589 347.825 137.981 347.583 138.317 347.265C138.653 346.948 138.914 346.565 139.101 346.117C139.306 345.651 139.409 345.128 139.409 344.549V343.989C139.409 343.411 139.306 342.897 139.101 342.449C138.914 341.983 138.653 341.591 138.317 341.273C137.981 340.956 137.589 340.713 137.141 340.545C136.693 340.377 136.217 340.293 135.713 340.293C135.209 340.293 134.733 340.377 134.285 340.545C133.837 340.713 133.445 340.956 133.109 341.273C132.773 341.591 132.502 341.983 132.297 342.449C132.11 342.897 132.017 343.411 132.017 343.989V344.549C132.017 345.128 132.11 345.651 132.297 346.117C132.502 346.565 132.773 346.948 133.109 347.265C133.445 347.583 133.837 347.825 134.285 347.993C134.733 348.161 135.209 348.245 135.713 348.245ZM149.413 351.213H145.885V331.613H149.413V339.341H149.917C150.29 338.576 150.832 337.988 151.541 337.577C152.25 337.148 153.156 336.933 154.257 336.933C155.078 336.933 155.853 337.092 156.581 337.409C157.328 337.727 157.972 338.193 158.513 338.809C159.073 339.407 159.512 340.144 159.829 341.021C160.165 341.899 160.333 342.897 160.333 344.017V344.521C160.333 345.66 160.174 346.668 159.857 347.545C159.54 348.423 159.11 349.169 158.569 349.785C158.028 350.383 157.384 350.84 156.637 351.157C155.909 351.456 155.116 351.605 154.257 351.605C153.622 351.605 153.072 351.54 152.605 351.409C152.138 351.279 151.728 351.101 151.373 350.877C151.037 350.653 150.748 350.401 150.505 350.121C150.281 349.823 150.085 349.515 149.917 349.197H149.413V351.213ZM153.109 348.245C154.21 348.245 155.097 347.909 155.769 347.237C156.46 346.547 156.805 345.613 156.805 344.437V344.101C156.805 342.925 156.46 342.001 155.769 341.329C155.097 340.639 154.21 340.293 153.109 340.293C152.008 340.293 151.112 340.648 150.421 341.357C149.749 342.048 149.413 342.963 149.413 344.101V344.437C149.413 345.576 149.749 346.5 150.421 347.209C151.112 347.9 152.008 348.245 153.109 348.245Z" fill="white"/>
<rect x="-1.38184" y="-1.78668" width="224" height="301" fill="white" stroke="black" stroke-width="4"/>
<mask id="mask0_412_19301" style="mask-type:alpha" maskUnits="userSpaceOnUse" x="-4" y="-4" width="229" height="306">
<rect x="-1.38184" y="-1.78668" width="224" height="301" fill="white" stroke="white" stroke-width="4"/>
</mask>
<g mask="url(#mask0_412_19301)">
<path fill-rule="evenodd" clip-rule="evenodd" d="M250.965 187.998C247.48 188.34 243.995 188.682 240.51 189.024C223.821 190.299 207.137 192.961 190.575 194.559C190.163 193.888 189.356 193.998 188.866 194.464C187.213 194.32 185.361 193.057 183.864 194.37C183.815 194.364 183.767 194.356 183.718 194.351C181.052 189.237 179.21 183.782 177.421 178.32C176.28 174.961 174.745 171.711 171.907 169.456C167.064 166.095 155.968 159.281 150.281 159.567C150.187 158.549 149.712 157.5 148.933 156.822C150.65 153.895 143.783 151.985 143.298 152.324C143.609 142.544 139.007 134.051 128.859 132.103C119.768 130.21 106.838 129.891 101.949 139.389C101.412 139.328 95.9179 139.3 95.3863 139.359C94.5599 138.313 85.4839 148.228 89.2038 151.68C55.947 166.387 37.0371 164.632 27.8322 205.977C26.5878 209.861 26.4971 214.111 25.1831 217.908C20.5081 228.821 16.7162 240.441 15.7725 252.316C13.4932 252.899 13.2311 256.917 15.8712 257.498C16.8796 257.72 17.7229 258.024 18.4582 258.599C17.8834 268.33 20.2376 290.559 21.721 290.49C24.7456 300.113 38.2368 302.829 47.7882 299.447C46.1416 302.544 47.7882 304.491 47.7882 306.145C82.1564 307.445 119.735 306.697 154.093 308.479C158.488 308.417 163.111 309.558 167.446 308.901C170.09 308.268 170.094 304.112 167.413 303.598L179.13 301.054C178.868 300.956 183.96 297.57 187.808 291.243C191.39 284.166 188.952 275.622 190.575 267.924C203.252 266.887 216.139 266.444 228.677 264.298C230.386 269.411 237.787 263.296 240.139 260.836C240.136 260.832 240.133 260.829 240.13 260.825C241.269 260.514 242.181 259.447 242.212 258.184C243.01 257.044 243.178 255.437 242.412 254.335C245.921 234.093 251.271 213.426 253.204 192.995C253.888 192.843 254.532 192.544 255.077 192.082L255.033 192.038C255.958 191.008 256.138 189.229 254.596 188.353C253.353 187.646 252.314 187.866 250.965 187.998Z" fill="white"/>
<path fill-rule="evenodd" clip-rule="evenodd" d="M102.582 137.183C103.618 134.582 107.118 135.593 106.728 138.326C106.494 139.963 105.597 141.692 104.792 143.127C104.136 144.294 103.388 145.434 102.373 146.31C104.179 147.994 106.053 149.617 107.976 151.158C110.073 152.839 112.278 154.388 114.558 155.813C116.557 157.062 118.646 158.168 120.531 159.594C122.283 160.919 123.879 162.512 124.691 164.593C125.556 166.808 125.18 169.096 124.543 171.309L124.47 171.56C123.819 173.753 122.692 176.397 124.254 178.463C125.05 179.515 126.206 180.26 127.204 181.101C128.092 181.849 128.925 182.662 129.689 183.535C131.354 185.438 132.709 187.58 133.564 189.967L133.64 190.183C134.373 192.296 134.909 194.884 133.918 196.958C133.634 197.553 132.718 197.359 132.559 196.781C132.199 195.469 132.218 194.095 131.916 192.765C131.603 191.382 131.08 190.069 130.398 188.827C129.079 186.423 127.291 184.371 125.179 182.635L124.547 182.121C122.9 180.77 121.386 179.336 121.052 177.099C120.694 174.706 121.653 172.427 122.27 170.162C122.7 168.583 122.84 167.07 122.376 165.644C121.808 166.569 121.034 167.448 120.422 168.232C119.202 169.794 117.971 171.346 116.744 172.901C115.485 174.495 114.257 176.115 113.088 177.777C112.565 178.52 112.048 179.268 111.532 180.016C111.144 180.579 110.603 181.141 110.181 181.715C110.283 182.022 110.275 182.376 110.089 182.627C107.848 185.654 104.659 179.337 103.827 177.741C102.133 174.491 100.873 171.038 99.1736 167.788C97.4128 164.419 95.4077 161.14 93.173 158.065C91.8212 156.205 90.3062 154.458 89.0696 152.538C86.1564 155.179 82.323 156.949 78.8019 158.554C74.9332 160.318 70.9139 161.759 66.9474 163.288L65.7757 163.743C58.9413 166.41 51.9398 169.339 46.2591 174.075C39.5837 179.641 35.6345 187.398 32.6945 195.431C29.3101 204.678 26.5101 214.176 23.9001 223.667C22.5644 228.523 21.2971 233.401 20.1056 238.295C19.0558 242.606 18.1855 246.96 16.9701 251.227C19.435 251.14 22.2462 252.094 24.3506 252.369C33.9413 253.624 43.403 255.625 52.4578 259.088C53.5763 259.516 53.8999 260.633 53.6563 261.538C54.3014 261.356 54.9459 261.172 55.5909 260.991C54.8842 259.908 55.2215 257.973 55.2771 256.773L55.2805 256.691C55.3376 255.092 55.5111 253.492 55.6236 251.896C55.8378 248.854 56.1167 245.834 56.4876 242.81L56.5822 242.053C57.0025 238.763 57.3131 235.453 57.7717 232.168L57.8259 231.792C57.606 230.951 57.35 230.121 57.0813 229.295C56.3653 227.093 55.3547 225.02 54.469 222.888C54.3646 222.637 54.7223 222.493 54.8895 222.643C56.3894 223.992 57.5808 225.703 58.538 227.493C58.5546 227.409 58.5692 227.324 58.5866 227.239L58.6958 226.702C58.9651 225.391 59.2927 224.013 60.097 222.95C60.1826 222.837 60.352 222.813 60.433 222.95C61.2027 224.252 61.2889 225.901 61.4072 227.382C61.5412 229.058 61.5581 230.755 61.5344 232.436C61.4883 235.721 61.2567 239.014 61.0722 242.294C60.8912 245.516 60.5357 248.697 60.0776 251.888L59.9906 252.487C59.7666 254.005 59.5833 255.543 59.2879 257.051L59.2045 257.462C59.0466 258.21 58.9495 259.264 58.6351 260.14C66.7223 257.885 74.822 255.682 82.937 253.517C88.8021 251.952 94.6734 250.411 100.542 248.86C100.852 248.302 101.237 247.781 101.719 247.315C103.304 245.78 105.406 245.095 107.333 246.277C107.489 246.373 107.503 246.619 107.333 246.712C106.964 246.913 106.594 247.12 106.23 247.336L109.754 246.382C112.388 245.668 115.054 244.776 117.75 244.279C122.715 241.829 128.056 240.056 133.287 238.304L133.903 238.095C136.582 237.183 139.352 236.161 142.119 235.655C144.145 235.284 146.523 235.731 147.338 237.806C148.369 238.485 149.339 239.284 150.276 240.069C150.953 240.637 151.601 241.24 152.261 241.827L152.383 241.934C152.923 242.402 153.35 242.715 153.482 243.46C153.551 243.845 153.306 244.365 152.831 244.314C151.379 244.159 150.198 242.476 149.213 241.471C148.452 240.694 147.685 239.891 146.991 239.037C146.586 239.258 146.031 239.218 145.773 238.73C144.437 236.201 140.776 237.953 138.75 238.553L135.849 239.412C134.398 239.842 132.948 240.274 131.5 240.713C127.521 241.921 123.562 243.273 119.547 244.382C119.906 244.777 119.856 245.479 119.174 245.746C116.031 246.979 112.583 247.617 109.318 248.463C107.257 248.997 105.196 249.535 103.137 250.076C102.784 250.647 102.53 251.294 102.423 252.048C102.03 254.817 102.788 258.012 103.526 260.69L103.637 261.09C104.244 263.243 105.137 265.883 106.996 267.242C107.449 267.574 108.027 267.805 108.609 267.857C112.247 265.985 115.885 264.113 119.525 262.245C120.199 261.899 120.822 262.367 120.974 262.925C122.257 262.714 123.538 262.382 124.704 261.987C126.664 261.321 128.194 260.052 130.031 259.175C133.586 257.477 137.216 259.562 140.399 261.148L141.132 261.508C142.559 262.2 145.529 263.53 146.214 261.637C146.876 259.805 144.782 257.848 143.429 257.023C141.817 256.04 139.94 255.514 138.118 255.076C137.078 254.826 136.025 254.622 134.965 254.473C133.763 254.304 132.522 254.329 131.365 253.939C130.79 253.746 130.702 252.833 131.365 252.682C133.146 252.277 135.272 252.719 137.131 253.171L138.102 253.41C139.975 253.87 141.865 254.446 143.571 255.362C144.811 256.029 146.12 257.041 146.975 258.281C147.718 257.591 148.642 257.614 149.605 257.87L150.128 258.015C150.99 258.254 151.69 258.419 152.53 258.253C152.642 257.643 152.756 257.032 152.877 256.421C154.074 250.416 155.386 244.434 156.834 238.484C159.332 228.221 162.222 218.07 165.48 208.024L165.807 207.02C166.558 204.722 167.163 202.218 168.374 200.107C169.52 198.111 171.356 196.961 173.537 196.352C176.012 195.661 178.613 195.3 181.138 194.833C181.701 194.729 182.266 194.63 182.829 194.528C182.353 193.668 181.997 192.692 181.677 191.943L181.621 191.813C180.933 190.245 180.315 188.648 179.718 187.043L179.271 185.836C178.193 182.93 177.081 180.072 175.565 177.354C173.97 174.494 171.854 172.156 169.216 170.22C163.838 166.274 157.355 164.261 152.139 160.044C151.925 159.871 152.199 159.575 152.416 159.685C155.938 161.454 159.741 162.657 163.405 164.097L164.127 164.382C167.023 165.53 169.964 166.779 172.47 168.637C175.264 170.709 177.465 173.282 179.119 176.341C180.75 179.357 181.792 182.733 182.943 185.954L183.25 186.813C183.714 188.1 184.193 189.383 184.742 190.635C185.178 191.63 185.992 192.765 186.361 193.901C187.373 193.726 188.384 193.55 189.397 193.381C211.329 189.72 233.505 187.569 255.731 186.94C256.601 186.916 257.051 187.745 256.922 188.503C254.789 201.112 252.894 213.763 250.814 226.381C249.906 231.888 248.98 237.391 248.033 242.891C247.553 245.678 246.998 248.454 246.543 251.244C246.176 253.498 245.91 255.77 245.279 257.971C244.714 259.945 243.847 261.848 242.422 263.354C240.887 264.978 238.744 265.764 236.586 266.135C231.11 267.077 225.492 267.462 219.971 268.09L190.577 271.433C191.006 275.336 191.038 279.178 190.841 283.127L190.729 285.282C190.637 287.016 190.527 288.752 190.278 290.468C189.966 292.621 188.981 294.444 187.53 296.051C186.198 297.528 184.579 298.788 183.005 299.995C181.371 301.248 179.682 302.458 177.761 303.233L177.511 303.332C175.826 303.99 172.664 305.009 170.36 304.636C170.661 306.145 171.244 307.767 170.727 309.259C170.487 309.952 169.581 310.298 169.025 309.709C167.925 308.54 167.839 306.996 167.578 305.471C167.307 303.884 167.074 302.292 166.866 300.696C166.464 297.609 166.152 294.495 166.056 291.382C165.958 288.186 165.996 284.985 166.168 281.792C166.257 280.152 166.367 278.513 166.575 276.884C166.664 276.189 166.754 275.494 166.858 274.801C166.896 274.548 166.938 274.297 166.983 274.046L164.345 274.343C160.299 274.795 156.252 275.202 152.178 275.266C151.695 275.273 151.324 275.053 151.081 274.734C150.823 275.154 150.373 275.455 149.728 275.453C144.039 275.432 138.741 273.572 133.566 271.38C130.958 270.275 128.39 269.079 125.778 267.983C123.339 266.96 120.733 266.231 118.353 265.079L112.101 268.357C112.055 268.518 111.996 268.671 111.934 268.798C111.526 269.629 110.724 270.08 109.904 270.419C109.117 270.745 108.302 270.847 107.508 270.764C102.767 273.249 98.0237 275.73 93.2775 278.206L88.5303 280.68C79.072 285.603 69.6511 290.607 60.1333 295.414L59.4326 295.767C56.1451 297.415 52.6151 299.085 48.9668 300.331C48.9018 301.255 48.9428 302.152 49.0202 303.129L49.0388 303.342C49.1476 304.497 49.3808 305.944 48.4543 306.766C47.9723 307.193 47.1113 307.195 46.7835 306.55C46.1888 305.382 46.7228 303.539 46.9112 302.269C46.978 301.817 47.0595 301.353 47.1801 300.903C42.9976 302.148 38.6885 302.751 34.4324 302.052C30.2885 301.372 27.079 298.762 24.4916 295.57C21.761 292.202 19.8206 288.276 18.7795 284.068C17.5947 279.28 17.5173 274.334 17.5451 269.429C17.5746 264.206 17.7679 258.957 18.4034 253.77C17.7072 253.606 16.935 253.464 16.2314 253.513C15.8829 254.071 15.2069 254.305 14.5961 254.233C13.2677 255.697 16.637 257.194 17.7138 257.569C18.0876 257.699 18.0476 258.306 17.6164 258.288L17.3448 258.275C15.681 258.186 13.9621 257.902 12.9839 256.357C12.2 255.118 12.4355 253.65 13.37 252.64C13.9872 246.806 15.4627 241.126 16.8359 235.435C18.1835 229.849 19.6822 224.299 21.2707 218.778L21.9829 216.306C24.4839 207.648 27.0981 198.92 30.5481 190.606C32.2708 186.455 34.2554 182.38 36.9455 178.76C39.4531 175.386 42.4136 172.499 45.8166 170.033C52.1606 165.435 59.6046 162.657 66.9186 160.01L67.246 159.892C71.0363 158.521 74.8173 157.134 78.5644 155.649C81.8783 154.336 85.0531 152.671 88.3514 151.338C88.2442 151.143 88.1408 150.947 88.0412 150.748L87.9802 150.799C87.9698 150.808 87.9591 150.816 87.948 150.823C87.6163 151.053 87.128 150.94 86.8546 150.682C86.0829 149.954 86.3442 149.146 86.8593 148.391L86.9264 148.295C87.5565 147.413 88.1186 146.48 88.7001 145.565L89.0643 144.993C90.0405 143.466 91.0663 141.928 92.3679 140.665C92.9707 140.08 93.6306 139.643 94.3298 139.316C94.27 139.19 94.7942 138.932 94.9428 139.062C97.158 138.251 99.7066 138.421 102.122 138.645M189.154 271.594L186.074 271.944C182.686 272.33 179.296 272.702 175.906 273.071L168.543 273.871C168.524 274.291 168.473 274.701 168.464 275.018C168.416 276.652 168.38 278.287 168.346 279.921C168.278 283.197 168.353 286.476 168.568 289.746C168.777 292.914 169.053 296.083 169.481 299.229L169.568 299.858L169.619 300.189C169.968 300.223 170.312 300.389 170.597 300.73C171.22 301.473 173.475 300.75 174.356 300.437C175.804 299.922 177.168 299.051 178.427 298.178C179.656 297.326 180.762 296.332 181.826 295.285L182.696 294.425C183.562 293.565 184.428 292.649 184.958 291.567C185.678 290.101 185.771 288.3 185.981 286.703C186.241 284.738 186.55 282.773 186.877 280.818M99.7469 250.969L99.4274 251.053C87.8228 254.135 76.2355 257.309 64.5952 260.255C58.8348 261.714 53.047 263.066 47.2794 264.496L46.3457 264.73C41.7957 265.879 37.1911 267.263 33.7068 270.562C33.5782 270.683 33.3915 270.497 33.5126 270.368C37.2677 266.372 42.6084 264.68 47.7363 263.213C48.6842 262.942 49.6333 262.678 50.5814 262.408C43.6075 259.923 36.5236 257.761 29.2762 256.218C27.4099 255.821 25.522 255.53 23.6572 255.131C22.3568 254.853 21.0867 254.451 19.7999 254.117L18.7878 253.863L18.7744 257.061C18.7575 261.59 18.7656 266.115 18.9967 270.644L19.0405 271.483C19.3101 276.523 19.7311 281.667 21.5201 286.419C22.9739 290.28 25.2911 293.918 28.3215 296.731C29.8548 298.154 31.5033 299.262 33.5411 299.809C35.4332 300.316 37.4156 300.376 39.3606 300.24C48.6903 299.59 56.9951 294.523 65.0994 290.329C78.3553 283.468 91.6126 276.61 104.882 269.775C104.523 269.53 104.185 269.247 103.878 268.93C102.099 267.093 101.16 264.578 100.544 262.143C99.8874 259.55 99.495 256.772 99.4494 254.095M116.631 272.424C116.748 272.361 116.884 272.439 116.889 272.572C116.93 273.585 116.37 274.584 115.951 275.497L115.907 275.594C115.399 276.725 114.842 277.84 114.266 278.938C113.116 281.132 111.92 283.302 110.672 285.441C108.162 289.745 105.373 293.867 102.077 297.615C101.332 298.461 100.107 297.376 100.585 296.464C102.889 292.07 105.575 287.922 108.339 283.809C109.723 281.75 111.106 279.689 112.504 277.639C113.087 276.784 113.677 275.932 114.284 275.093L114.65 274.591M254.262 189.457C242.616 189.808 230.985 190.567 219.395 191.757C208.617 192.864 197.878 194.336 187.199 196.173C184.969 196.556 182.741 196.955 180.516 197.37L179.182 197.621C176.957 198.043 174.238 198.216 172.257 199.405C170.168 200.658 169.604 203.276 168.909 205.435C168.092 207.974 167.295 210.521 166.521 213.073C163.444 223.208 160.633 233.431 158.126 243.722C156.881 248.83 155.777 253.966 154.613 259.093C153.579 263.647 152.439 268.151 151.247 272.66C151.394 272.546 151.574 272.459 151.791 272.413C157.709 271.154 163.749 270.607 169.756 269.912L170.337 269.844C176.55 269.114 182.763 268.388 188.98 267.69L230.14 263.062C232.568 262.79 235.168 262.753 237.531 262.101C241.547 260.994 242.489 256.505 243.163 252.93L243.183 252.822C245.215 242.021 246.832 231.126 248.727 220.297M152.205 260.104C150.607 259.999 148.42 258.536 147.207 258.641C147.844 259.708 148.131 260.926 147.764 262.226C146.743 265.845 142.127 263.972 139.903 262.867C138.08 261.96 136.319 260.851 134.301 260.426C132.014 259.945 130.465 260.854 128.533 261.902C126.946 262.763 125.218 263.381 123.441 263.7C122.496 263.871 121.598 263.889 120.702 263.822C120.648 263.866 120.588 263.907 120.518 263.943L120.044 264.192C122.187 264.29 124.37 264.951 126.364 265.557C128.431 266.183 130.46 266.939 132.478 267.712L134.463 268.475C139.36 270.35 144.429 272.13 149.728 272.114C150.109 272.113 150.422 272.218 150.667 272.39M143.264 248.766C144.843 248.573 146.3 248.78 147.561 249.807C149.083 251.046 150.105 253.101 152.292 253.236C152.93 253.275 153.078 254.171 152.444 254.359C150.816 254.841 149.498 253.96 148.389 252.817L147.643 252.038C146.547 250.903 145.536 250.026 143.676 250.094C141.684 250.167 139.689 250.627 137.71 250.861C135.468 251.126 133.227 251.352 130.978 251.547C130.873 251.556 130.855 251.391 130.953 251.367L133.472 250.74M141.74 242.314L142 242.288C144.293 242.065 146.39 242.057 148.437 243.29L148.83 243.527C150.676 244.649 152.685 245.97 153.839 247.786C154.028 248.083 153.716 248.433 153.4 248.357C151.181 247.825 149.559 246.198 147.694 244.98C145.6 243.613 143.437 243.839 141.049 244.051C138.738 244.256 136.427 244.539 134.138 244.924C131.987 245.286 129.83 245.857 127.657 246.039L127.658 246.034C127.41 246.034 127.268 245.661 127.521 245.535C129.726 244.434 132.279 243.913 134.678 243.411M211.382 219.663C211.161 218.604 212.464 218.112 213.069 218.953L213.197 219.13C214.503 220.918 216.39 223.161 216.294 225.435C217.442 225.46 218.632 226.157 219.079 227.192C219.285 227.671 219.355 228.239 219.31 228.826C220.353 228.907 221.49 229.592 222.128 230.258C223.185 231.363 223.268 232.925 222.51 234.216C220.857 237.03 217.245 238.054 214.196 238.282L214.088 238.29C210.939 238.508 206.401 238.449 204.241 235.748C202.158 233.143 204.461 231.033 206.821 229.888C206.207 229.327 205.888 228.523 206.188 227.674C206.713 226.184 208.568 225.608 209.616 224.571C210.894 223.307 211.738 221.574 211.402 219.762M213.113 221.954C212.766 223.463 211.912 224.843 210.724 225.936C210.27 226.354 209.773 226.727 209.245 227.046L209.181 227.083C208.712 227.346 207.56 227.839 207.649 228.429C207.74 229.036 209.617 229.985 210.129 229.986C210.245 229.986 210.311 230.167 210.192 230.22C209.265 230.629 208.455 230.805 207.549 230.372C206.943 230.99 206.355 231.63 205.772 232.264C204.741 233.386 205.094 234.571 206.312 235.406C208.268 236.749 211.243 236.716 213.526 236.618C215.824 236.52 218.28 236.008 220.075 234.478L220.153 234.41C221.129 233.542 222.02 232.073 220.526 231.237C219.941 230.91 219.309 230.929 218.753 230.77C218.234 231.789 217.39 232.605 216.361 232.762C215.53 232.889 214.957 231.844 215.714 231.345L215.884 231.239C216.833 230.633 217.644 229.7 217.622 228.484C217.608 227.64 216.429 226.575 215.661 227.367L215.626 227.405C214.983 228.129 213.851 227.217 214.274 226.415L214.294 226.378M63.2397 179.997C63.2368 179.816 63.4918 179.748 63.5809 179.905C65.0725 182.528 65.8522 185.744 66.6468 188.634C67.479 191.662 68.1509 194.72 68.7544 197.801C69.9768 204.039 70.6282 210.242 70.6724 216.6C70.6785 217.508 69.1991 217.75 69.0543 216.819C68.0935 210.635 67.173 204.443 66.2049 198.26C65.7178 195.15 65.1508 192.053 64.6083 188.952M78.0064 184.566C77.8966 184.205 78.4233 184.084 78.558 184.414C81.5515 191.76 82.5652 200.085 80.6434 207.834C80.3493 209.02 78.6124 208.506 78.8343 207.335M116.619 178.039C116.604 177.769 116.955 177.726 117.088 177.912C118.506 179.91 119.095 182.586 121.583 183.618C122.826 184.134 124.224 184.044 125.321 184.915C126.055 185.497 126.618 186.416 126.067 187.298C125.89 187.583 125.392 187.726 125.151 187.416C124.799 186.965 124.613 186.425 124.135 186.087C123.461 185.61 122.551 185.58 121.778 185.356C120.778 185.066 119.897 184.559 119.175 183.805M140.315 144.718C140.461 144.643 140.602 144.691 140.695 144.817C140.829 144.997 140.812 145.172 140.649 145.296C140.867 145.742 141.125 146.86 141.162 147.023C141.311 147.682 141.47 148.338 141.636 148.993C141.972 150.315 142.266 151.647 142.601 152.969C142.957 154.37 143.381 155.756 143.853 157.123C143.883 157.211 143.917 157.302 143.952 157.393L144.005 157.532L144.019 157.511C144.114 157.359 144.314 157.465 144.29 157.625C144.268 157.771 144.239 157.916 144.214 158.062L144.263 158.193C144.572 159.023 144.783 159.898 144.217 160.63C144.005 160.904 143.772 161.066 143.482 161.115C143.016 162.649 142.432 164.155 141.807 165.602L141.623 166.024C140.703 168.134 139.722 170.217 138.257 172.013C136.657 173.975 134.457 175.314 133.064 177.464C132.416 178.463 131.965 179.515 131.599 180.644L131.461 181.072C131.201 181.871 130.902 182.645 130.152 183.113C129.913 183.263 129.555 183.215 129.362 183.011C127.825 181.386 129.434 178.352 130.361 176.779C131.649 174.591 133.513 173.191 135.38 171.54C137.392 169.761 138.675 167.381 139.917 165.036C140.677 163.6 141.411 162.132 142.184 160.689C141.377 159.976 141.118 158.559 140.845 157.574L140.82 157.485C140.367 155.908 140.008 154.29 139.781 152.664C139.563 151.101 139.472 149.56 139.529 147.989L139.546 147.588M143.318 152.156C143.139 151.912 143.434 151.635 143.679 151.686C145.167 151.994 146.622 152.894 147.958 153.622L148.101 153.7C149.167 154.275 150.24 154.979 150.8 156.095C151.409 157.309 151.358 158.707 151.275 160.026L151.268 160.149C151.166 161.731 151.149 163.374 150.815 164.927C150.643 165.722 149.923 165.946 149.307 165.758C148.575 168.071 146.517 169.774 145.013 171.599C143.097 173.926 143.457 177.067 143.658 179.869C143.739 181.003 142.327 181.326 141.6 180.721L139.925 179.329C139.646 179.097 139.367 178.864 139.089 178.631C138.851 178.431 138.615 178.229 138.381 178.025L138.032 177.716C137.877 177.578 137.193 176.814 136.994 176.783C136.509 176.706 135.359 177.981 134.966 178.381L134.916 178.431C134.175 179.157 133.505 179.939 132.882 180.768C132.767 180.92 132.543 180.793 132.625 180.618C133.184 179.421 133.833 178.277 134.605 177.207L134.761 176.993C135.274 176.302 135.963 175.081 136.869 174.877C137.975 174.628 139.079 175.737 139.884 176.352L139.935 176.391C140.318 176.678 140.696 176.97 141.074 177.264C141.035 175.178 141.298 173.07 142.376 171.273C143.135 170.005 144.274 169.066 145.248 167.976C146.332 166.763 146.898 165.272 147.88 164.008C148.006 163.846 148.18 163.758 148.369 163.73C148.407 162.715 148.556 161.689 148.672 160.684L148.706 160.383C148.822 159.292 149.099 157.958 148.564 156.936C148.059 155.97 146.9 155.288 146.042 154.633L145.341 154.089M95.0173 140.612C94.5692 140.872 94.1504 141.194 93.7704 141.597C92.5743 142.865 91.7192 144.443 90.887 145.962C90.4389 146.78 90.007 147.606 89.5553 148.422C89.3588 148.777 89.1567 149.128 88.9525 149.479C88.858 149.64 88.5774 149.961 88.4383 150.159C88.5928 150.376 88.7526 150.589 88.9157 150.8C88.9779 150.88 93.2684 155.553 94.7639 157.381C97.0541 160.182 99.1011 163.141 100.851 166.307C102.565 169.408 103.87 172.692 105.457 175.853C106.252 177.435 107.139 179.007 108.27 180.376C108.314 180.43 108.36 180.48 108.405 180.533C108.836 179.367 109.943 178.119 110.486 177.402L110.537 177.334C111.769 175.674 113.07 174.064 114.4 172.481C115.614 171.035 116.859 169.621 118.135 168.23L118.614 167.709C119.503 166.75 120.632 165.314 121.932 164.628C121.793 164.38 121.632 164.134 121.446 163.892C120.227 162.3 118.505 161.144 116.805 160.102L115.702 159.431C111.547 156.9 107.456 154.251 103.848 150.961C101.939 149.221 100.057 147.398 98.4527 145.368L97.8853 144.65M101.951 139.359C100.005 139.522 97.9036 139.484 96.1052 140.117C97.7039 141.628 99.2236 143.26 100.785 144.796C100.924 143.757 101.208 142.731 101.448 141.717" fill="black"/>
<path fill-rule="evenodd" clip-rule="evenodd" d="M122.528 39.2362C133.454 39.2362 146.564 44.5314 147.679 44.6373L147.709 44.6389C148.295 44.6389 150.587 46.384 154.583 49.8743L150.254 58.3141L150.605 58.6485C152.281 60.2551 153.712 61.7194 154.842 62.8738C164.064 72.2993 165.722 109.306 163.549 122.212C161.375 135.118 157.349 147.746 138.607 147.746C119.865 147.746 99.0133 136.48 95.8013 132.972C93.6599 130.633 91.2546 129.513 88.5854 129.61C88.4757 129.472 88.3669 129.334 88.2589 129.196L87.8662 129.141C84.1721 128.606 81.5251 127.886 79.9255 126.981C76.8009 125.214 73.3666 115.924 73.3666 113.878C73.3666 111.852 68.2386 97.1132 68.136 95.5535L68.1344 95.5103C68.1344 94.2065 61.4351 88.2128 61.4351 86.3094C61.4351 84.4059 60.0848 84.5214 61.4351 77.8139L61.8274 75.8434C63.2644 68.7019 66.077 56.8765 76.8009 51.738C88.5854 46.0914 111.491 39.2362 122.528 39.2362Z" fill="white"/>
<path fill-rule="evenodd" clip-rule="evenodd" d="M74.9811 51.4727C80.8584 45.2365 114.225 35.5906 131.106 37.6353L131.612 37.7009C132.959 37.8716 134.287 38.1302 135.597 38.4815C139.832 39.4703 144.207 40.9676 147.707 43.4685C150.628 45.5144 159.844 48.8555 157.128 54.2076C158.135 56.1152 158.511 58.4719 157.83 60.3507C157.744 60.9996 157.544 61.5973 157.288 62.217C159.44 65.3913 161.144 68.981 162.523 72.3953C164.933 80.988 166.432 89.9303 166.652 98.6973C167.383 115.353 165.556 135.249 151.044 146.02C142.278 152.845 128.546 153.074 118.695 144.612C118.136 143.95 115.506 142.165 116.384 141.852C116.645 142.128 116.913 142.396 117.187 142.66C117.174 142.631 117.172 142.601 117.177 142.57L116.92 142.337C116.436 141.889 115.809 141.24 116.523 141.367C116.554 141.404 116.589 141.435 116.623 141.472C116.774 141.563 116.888 141.641 116.977 141.711L117.023 141.747L117.009 141.732C116.597 141.294 116.351 140.846 116.966 141.132L117.047 141.172C117.321 141.46 117.599 141.735 117.882 142.004C117.877 141.972 117.882 141.94 117.899 141.906L117.635 141.651C117.378 141.399 117.417 141.398 117.543 141.194C116.995 140.426 118.018 140.882 118.089 141.182C118.729 141.03 119.291 142.231 119.703 142.377C137.762 156.256 163.969 143.941 163.545 105.266L163.538 104.51C163.414 92.1431 162.373 79.4326 157.256 68.2381C156.759 67.1598 156.202 66.1107 155.59 65.0958C155.168 64.3346 154.716 63.593 154.23 62.8708C152.871 62.7611 151.529 62.5122 150.206 62.1267C149.752 62.0121 149.303 61.8852 148.854 61.7364C142.294 62.0941 135.88 62.4832 129.302 62.8521L127.247 62.98C121.675 63.3381 115.912 63.9117 111.415 67.3574C107.002 70.4943 106.982 76.6801 103.205 80.1241C97.8192 83.7785 97.7799 87.0737 96.7427 92.4591C96.8196 96.5187 99.6354 102.417 94.4682 104.126C95.3399 105.368 94.1248 104.771 94.0291 104.335C94.0194 104.338 94.0096 104.34 94.0023 104.34C94.7791 105.784 93.6372 104.875 93.5362 104.411C93.4752 104.394 93.4141 104.35 93.3531 104.289C94.1358 105.554 92.8707 104.668 92.9456 104.438C91.4332 102.114 88.3207 101.753 86.1267 102.369C86.0998 102.452 86.0025 102.459 85.9415 102.415C76.6123 104.436 79.0193 123.743 88.5796 121.876C88.9889 121.793 88.9791 121.989 89.0604 122.008C88.8395 121.429 89.4621 121.664 89.4555 121.786L89.4934 121.784C89.5235 121.782 89.5112 121.778 89.5336 121.786C89.32 120.601 90.5217 122.318 90.4268 122.389C90.4636 122.367 90.5051 122.355 90.5417 122.35L90.5004 122.237C90.3009 121.706 90.318 121.927 90.3194 121.623C90.1696 121.247 90.1586 121.411 90.1937 121.166C90.7204 120.758 90.8758 121.996 91.0515 122.086C90.7504 121.667 90.9898 121.324 91.2739 121.552C93.4271 126.079 96.2085 130.333 99.803 133.684C100.196 133.994 100.594 134.299 101.006 134.587C102.535 135.918 104.88 136.775 106.312 137.954C106.312 137.973 106.302 137.998 106.288 138.022L106.32 138.052L106.353 138.083L106.851 138.322C106.998 138.447 107.13 138.586 107.246 138.739C107.371 138.883 107.481 139.042 107.574 139.21C107.62 139.415 107.518 139.501 107.322 139.413C107.237 139.383 107.151 139.349 107.066 139.318C107.071 139.325 107.073 139.33 107.078 139.335C107.106 139.377 107.296 139.816 107.077 139.745L107.051 139.735C106.932 139.691 106.812 139.642 106.695 139.596C106.834 139.769 106.961 139.957 107.073 140.115C107.193 140.24 107.266 140.386 107.295 140.552C107.29 140.645 107.239 140.684 107.147 140.672C107.005 140.625 106.866 140.576 106.727 140.525L106.766 140.601C106.865 140.794 107.005 141.119 106.756 141.011C106.544 140.945 106.339 140.869 106.134 140.786C106.116 140.82 106.083 140.833 106.014 140.801C105.363 140.569 104.733 140.286 104.13 139.952C103.601 139.566 103.066 139.188 102.534 138.805C102.034 138.505 101.55 138.171 101.089 137.795C98.0032 135.803 95.3014 133.271 93.1579 130.452C89.5731 133.555 82.4057 130.59 77.9721 128.161C74.0506 125.99 72.5092 121.975 72.1106 117.647C71.2821 111.819 66.5183 109.825 66.8498 97.0383C66.8424 97.0407 66.8349 97.0407 66.8251 97.0407C66.6518 96.9895 66.4837 96.9212 66.3251 96.8334C66.1615 96.7553 66.0078 96.6626 65.8636 96.5504L65.6854 96.304C65.5929 96.2527 65.5099 96.1991 65.4465 96.1454L65.4136 96.1878C65.3094 96.3135 65.3794 96.1244 65.3855 96.0868L65.076 95.6661C64.3422 94.6645 63.5371 93.5407 62.8813 92.642L62.8607 92.6785C62.8458 92.7061 62.838 92.726 62.845 92.7347C61.2843 90.4932 59.8166 87.7856 59.4088 85.1645C58.9273 83.1454 59.1154 81.0649 59.5355 79.1946C61.3363 72.6453 67.2353 57.8249 74.9811 51.4727ZM117.335 142.046L117.237 141.959L117.323 142.067C117.368 142.122 117.414 142.172 117.489 142.223C117.484 142.206 117.484 142.189 117.487 142.17C117.437 142.132 117.386 142.09 117.335 142.046ZM131.031 40.9261C119.583 39.9422 108.324 42.4633 97.3999 45.5151L96.6463 45.7316C90.4348 47.5034 83.8668 49.0978 78.6176 52.8902C71.2838 58.5056 67.4967 67.4386 64.1918 75.6864C61.306 81.8143 62.7813 88.7242 67.1302 93.0031C67.5826 88.751 68.354 84.6233 69.5596 80.5289C69.8112 79.8892 69.6209 79.6796 70.1632 79.5962C70.9822 90.6303 66.9483 98.7826 74.9311 111.86C78.3948 118.03 74.3852 122.545 84.1665 125.792L84.4312 125.893C86.469 126.662 88.6944 127.268 90.6903 126.839L90.5115 126.548C90.3292 126.249 90.2738 126.103 90.539 125.975C90.532 125.96 90.5222 125.946 90.5122 125.929C90.2977 125.524 90.0902 125.114 89.8923 124.699C89.812 124.726 89.7315 124.746 89.6483 124.767C89.7022 124.868 89.7093 124.968 89.5582 125.002C89.0204 125.186 88.4682 125.26 87.9029 125.225L87.7816 125.216C87.1429 125.177 86.7405 125.061 86.3805 124.953C86.2612 124.933 86.1416 124.914 86.0242 124.889C84.8662 124.633 83.6404 123.98 82.847 123.333C73.8031 118.198 74.7378 100.718 85.8853 99.0656C86.114 88.0598 91.3505 69.4921 100.041 59.0047C107.896 49.358 129.342 45.177 144.262 46.6512C144.479 46.7232 144.696 46.7959 144.914 46.8693C147.216 47.0738 149.41 48.0989 151.713 48.5752C150.059 47.3361 148.183 46.5107 146.25 45.8093C142.4 43.4548 137.985 42.1808 133.721 41.2823C132.837 41.0651 131.942 40.9456 131.031 40.9261ZM85.3751 107.907C85.9745 107.581 85.9059 107.896 86.0438 107.804C90.3551 107.453 95.0039 111.226 97.4139 114.372C97.2235 114.57 96.7086 113.984 96.6183 113.891C96.6061 113.904 96.5915 113.913 96.5768 113.918L96.6439 114.013C97.6207 115.414 95.6843 113.765 95.503 113.425C95.4713 113.443 95.4396 113.452 95.403 113.445C95.5565 113.595 96.0253 113.988 96.1058 114.267L96.2301 114.371C97.4021 115.374 97.3048 116.129 95.9743 114.704C96.0057 114.77 96.0179 114.831 95.996 114.879L96.0418 114.91C96.6961 115.367 97.2342 116.641 95.8666 115.333C96.0089 116.289 94.5115 114.442 94.4634 114.455C91.8721 112.422 88.0569 110.444 84.8065 110.178L84.6946 110.165C84.0981 110.089 83.8161 109.912 84.0255 109.522C83.291 109.347 83.463 108.986 83.8108 108.997C83.2927 108.657 83.759 108.331 84.0597 108.458C83.853 107.886 84.682 108.267 84.7577 108.188C85.1879 107.524 85.3038 108.077 85.3751 107.907ZM76.3381 72.4465C78.4088 71.6882 84.5254 73.9581 84.036 76.9642C83.7447 77.6544 82.7846 78.0499 82.1098 77.6603L81.2291 77.069C79.6964 76.0429 78.3141 75.1431 76.6685 74.2482C75.7729 73.8039 75.3873 72.8607 76.3381 72.4465ZM88.1194 67.9792L87.3197 67.4589C83.004 64.6353 76.903 60.357 87.7228 64.7835C88.956 65.3121 90.5945 65.6249 91.2673 66.7989C92.3243 68.9626 89.5427 69.108 88.1194 67.9792ZM88.6044 55.3103C88.2581 53.9965 92.5672 55.5381 93.8216 55.9446L94.0126 56.0167C95.2329 56.4712 96.6316 56.8929 97.3615 57.9456C98.2166 59.4001 96.4858 59.7014 95.4137 59.0444C93.2156 57.6084 90.8057 56.525 88.6044 55.3103ZM99.5621 49.1904C97.1366 46.5425 103.628 49.0791 104.6 49.7832L104.628 49.804C105.354 50.3146 105.206 51.4144 104.525 51.7374C102.585 51.7742 101.158 50.1582 99.5621 49.1904ZM110.599 46.2893C106.743 43.5191 111.823 44.8368 113.587 45.9224C114.789 46.9824 113.551 48.7719 110.599 46.2893Z" fill="black"/>
<path fill-rule="evenodd" clip-rule="evenodd" d="M142.33 124.294C142.704 123.643 143.566 123.04 144.355 123.133C147.889 123.547 147.883 127.83 146.518 130.33C145.308 132.547 142.805 133.848 140.299 133.658C137.666 133.458 135.423 131.911 134.436 129.449C133.783 127.821 133.482 124.814 135.218 123.72C135.251 123.7 135.304 123.705 135.329 123.734C136.162 124.703 136.195 126.156 136.924 127.234C137.602 128.237 138.655 129.065 139.889 129.193C140.81 129.289 141.743 128.956 142.103 128.129C142.298 127.682 142.276 127.439 142.203 127.131L142.136 126.864C141.905 125.926 141.802 125.213 142.33 124.294ZM143.275 105.512C145.118 106.632 147.926 109.243 145.943 112.019C143.609 114.467 140.25 111.661 138.594 110.391C137.059 109.408 135.334 111.938 136.758 113.086C148.722 121.941 153.577 105.805 144.207 104.196C143.175 104.018 142.792 105.166 143.275 105.512ZM123.814 97.8335C124.945 96.137 127.527 96.3868 128.15 98.4C128.487 99.4905 128.021 100.471 128.046 101.56C128.066 102.48 128.006 103.505 127.723 104.396C127.08 106.428 125.252 107.863 123.09 107.803C120.934 107.744 119.036 106.38 118.133 104.459C117.227 102.531 117.419 100.536 118.08 98.5754C118.112 98.4812 118.236 98.4356 118.31 98.5149C119.092 99.3454 119.664 100.222 120.256 101.152L120.863 102.105C121.327 102.823 122.001 103.74 122.867 103.682L122.997 103.67C123.237 103.649 123.201 103.697 123.386 103.369C123.472 103.217 123.456 102.935 123.498 102.756L123.512 102.696L123.505 102.663C123.486 102.576 123.468 102.413 123.453 102.129L123.45 102.067C123.387 100.74 123.012 99.0355 123.814 97.8335ZM152.487 98.9629C152.284 96.7931 155.336 96.3113 156.35 97.9168C156.88 98.7541 157.034 99.8058 157.151 100.802L157.205 101.275C157.325 102.299 157.373 103.363 156.929 104.318C156.229 105.822 154.706 106.616 153.065 106.491C151.497 106.37 150.066 105.461 149.312 104.082C148.64 102.851 147.971 100.447 148.788 99.163C148.837 99.0852 148.936 99.0752 149.003 99.1352C149.775 99.82 149.901 101.069 150.359 101.961C150.833 102.882 151.55 103.778 152.638 103.918C153.679 104.052 154.076 103.484 153.811 102.492C153.468 101.212 152.616 100.341 152.487 98.9629ZM124.638 84.9334L125.137 84.7423C126.847 84.0966 129.194 83.3503 130.584 84.7402C131.442 85.5972 131.605 86.8597 130.993 87.9056C130.252 89.1725 128.921 89.2038 127.637 89.3904C126.176 89.6027 124.69 90.0062 123.329 90.5814C121.797 91.2297 120.375 92.0377 118.982 92.9401C117.657 93.7976 116.338 95.1992 114.753 95.4634C114.688 95.4742 114.615 95.4464 114.598 95.3754C114.238 93.8262 115.238 92.3016 116.131 91.093C117.211 89.6297 118.52 88.4287 119.983 87.3518C121.394 86.3123 123.008 85.5611 124.638 84.9334ZM155.697 90.4413L155.85 90.4146C156.886 90.2421 157.826 90.2818 158.607 91.1027C159.204 91.729 159.434 92.5406 159.149 93.3687C158.887 94.1325 158.3 94.9086 157.449 95.0686C154.574 95.6092 151.39 95.52 148.501 95.1106C147.179 94.9232 145.846 94.6939 144.558 94.3323L143.966 94.1607C142.891 93.8538 141.661 93.5331 140.88 92.7429C140.599 92.4589 140.761 92.0525 141.097 91.921C142.459 91.3877 144.326 91.6714 145.779 91.6297C147.469 91.5814 149.161 91.4547 150.843 91.2803C152.486 91.1095 154.076 90.7385 155.697 90.4413Z" fill="black"/>
<path fill-rule="evenodd" clip-rule="evenodd" d="M121.533 130.598C123.509 125.971 127.821 122.57 132.786 121.327C136.432 120.416 140.259 120.445 143.976 120.806C145.923 120.994 148.012 121.149 149.847 121.871C151.414 122.489 152.691 123.657 153.651 125.027C154.794 126.651 155.572 128.509 156.118 130.414C156.195 130.685 156.268 130.958 156.336 131.232C156.099 132.669 155.595 133.893 154.263 134.796C152.964 135.679 151.413 136.04 149.867 136.168C149.716 136.095 149.569 136.021 149.435 135.944C147.026 134.565 145.331 131.308 142.291 131.749C139.578 132.142 137.792 135.555 136.178 137.556C130.999 138.159 125.824 136.604 121.61 133.643C121.396 132.63 121.384 131.608 121.533 130.598ZM159.856 127.088C159.442 125.926 158.92 124.8 158.302 123.74C156.257 120.233 153.118 117.439 149.391 115.841C140.576 112.068 129.17 114.728 122.05 120.916C119.619 123.032 117.16 126.141 116.416 129.485C116.194 129.528 115.984 129.644 115.812 129.807C110.668 126.569 105.372 123.455 101.227 118.967C98.2168 115.707 96.1232 111.848 94.8413 107.608C94.7365 107.259 94.1735 107.31 94.1905 107.697C94.1954 107.787 94.2003 107.877 94.2052 107.967C94.1515 107.801 93.8981 107.887 93.8786 108.048C93.1888 113.199 92.3261 118.66 93.1206 123.837C93.5958 126.927 94.9997 129.189 96.8763 131.631C98.8871 134.249 101.163 136.684 103.491 139.019C104.968 140.501 106.511 142.21 108.319 143.297C110.422 144.56 112.808 145.52 115.053 146.494C117.337 147.488 119.655 148.406 122.016 149.203C126.737 150.8 131.616 151.904 136.581 152.387C140.556 152.773 145.099 153.194 148.909 151.699C151.828 150.553 154.185 148.482 156.054 145.991C158.09 143.278 159.698 140.187 160.588 136.928C161.512 133.542 160.051 127.634 159.856 127.088Z" fill="black"/>
</g>
</g>
<defs>
<clipPath id="clip0_412_19301">
<rect width="221" height="385" fill="white"/>
</clipPath>
</defs>
</svg>
