<svg width="64" height="64" viewBox="0 0 64 64" fill="none" xmlns="http://www.w3.org/2000/svg">
<path d="M12.4185 17.119C13.0041 17.119 13.6203 16.8653 14.0348 16.4503C14.4311 16.055 14.7298 15.4034 14.7051 14.8355C14.6789 14.244 14.4831 13.6294 14.0348 13.2181C13.587 12.8094 13.0378 12.5477 12.4185 12.5477C11.8329 12.5477 11.2167 12.803 10.8011 13.2181C10.4048 13.6144 10.1071 14.266 10.1323 14.8355C10.1586 15.4243 10.3533 16.0389 10.8011 16.4503C11.2489 16.8616 11.7991 17.119 12.4185 17.119Z" fill="white"/>
<path d="M20.4826 17.119C21.0671 17.119 21.6828 16.8653 22.0974 16.4503C22.4953 16.055 22.7924 15.4034 22.7677 14.8355C22.7414 14.244 22.5457 13.6294 22.0974 13.2181C21.6506 12.8094 21.1004 12.5477 20.4826 12.5477C19.8969 12.5477 19.2791 12.803 18.8651 13.2181C18.4699 13.6144 18.1701 14.266 18.1948 14.8355C18.2227 15.4243 18.4168 16.0389 18.8651 16.4503C19.3129 16.8616 19.8632 17.119 20.4826 17.119Z" fill="white"/>
<path d="M28.5449 17.119C29.1295 17.119 29.7451 16.8653 30.1597 16.4503C30.5576 16.055 30.8564 15.4034 30.8306 14.8355C30.8027 14.244 30.6086 13.6294 30.1597 13.2181C29.713 12.8094 29.1644 12.5477 28.5449 12.5477C27.9593 12.5477 27.3415 12.803 26.9275 13.2181C26.5323 13.6144 26.2336 14.266 26.2572 14.8355C26.2851 15.4243 26.4808 16.0389 26.9275 16.4503C27.3769 16.8621 27.925 17.119 28.5449 17.119Z" fill="white"/>
<path d="M62.3683 6.60268C43.0119 5.92481 23.6679 5.86047 4.30461 6.2026C1.86128 6.24497 1.45476 9.44716 3.08189 10.4575C2.99179 13.6092 2.92744 16.7604 2.88828 19.9095C2.88828 19.9095 1.9707 20.0222 0.491077 20.3504C-0.188394 20.4995 -0.138516 21.4986 0.491077 21.6755C1.94813 22.0885 2.86522 22.3491 2.86522 22.3491C2.81212 28.5979 2.84216 34.8451 2.92474 41.0973C2.95853 43.5835 3.00787 46.0709 3.05023 48.5537C3.07544 50.0312 3.09904 51.5054 3.12532 52.983C3.14194 54.0662 2.90597 55.4193 3.26475 56.4602C3.87987 58.2492 5.68021 58.053 7.25739 58.0793C10.0637 58.1243 12.8713 58.1645 15.6765 58.1994C26.7572 58.3292 37.8377 58.393 48.9155 58.3388C52.8395 58.3211 57.495 58.6858 60.5246 55.6665C63.346 52.8532 63.5804 48.5848 63.7481 44.8448C64.2967 32.6416 63.1899 20.4307 63.997 8.23393C64.0576 7.33297 63.2016 6.63369 62.3678 6.60308L62.3683 6.60268ZM4.86887 10.7417C23.4729 10.111 42.0893 9.86378 60.703 9.86485C60.6316 13.0188 60.6327 16.172 60.6735 19.3243C50.2373 19.5807 39.7973 19.7206 29.3578 19.6874C24.2599 19.6724 19.1614 19.7475 14.0652 19.7625C11.5168 19.7684 8.96724 19.8445 6.41943 19.888C6.06923 19.8939 5.71636 19.8949 5.36295 19.8965C5.22191 16.845 5.05619 13.7936 4.86903 10.7416L4.86887 10.7417ZM60.0577 50.4374C58.6757 55.2881 53.9848 55.0377 49.8049 55.0774C39.9067 55.1723 8.73493 54.9701 8.14458 54.9616C7.70214 54.953 7.25864 54.9465 6.8162 54.9396C6.29172 54.783 5.74042 28.6926 5.47603 22.4968C5.64657 22.5054 5.81764 22.5134 5.98603 22.5231C8.53658 22.685 11.091 22.87 13.6447 22.9682C18.8761 23.1677 24.1211 23.3366 29.3574 23.3398C39.8167 23.3441 50.272 23.1741 60.728 22.8877C60.8159 27.5921 60.9318 32.2957 60.9178 37.001C60.9055 41.3342 61.2584 46.2225 60.0582 50.4371L60.0577 50.4374Z" fill="white"/>
<path d="M42.1823 45.0944C41.5484 44.5045 40.9097 43.8315 40.219 43.2329C43.2989 40.1348 43.8351 35.3076 41.0009 31.2876C37.2178 25.9264 30.1111 24.2822 24.8639 28.5177C24.8639 28.5193 24.8623 28.5193 24.8623 28.5193C23.7629 29.2996 22.8684 30.4714 22.3143 31.6463C21.1533 34.1105 21.1227 37.1658 22.1314 39.6826C24.357 45.2284 31.333 47.6502 36.7308 45.5072C37.1437 45.3431 37.5374 45.1559 37.9128 44.9521C38.6609 45.8043 39.5409 46.5878 40.2526 47.3778C41.4877 48.748 42.728 50.4362 44.3401 51.3619C45.6084 52.0913 47.5177 50.5189 46.5056 49.198C45.3198 47.6497 43.6112 46.4286 42.182 45.0942L42.1823 45.0944ZM25.882 39.4811C24.3723 37.2538 24.1921 34.2115 25.3666 31.9119C26.1442 32.3672 27.1541 32.4214 28.0024 31.6588C31.1842 28.7966 36.0547 30.3921 38.2449 33.7057C40.486 37.0924 38.9227 40.9049 35.2144 42.2911C31.9693 43.5053 27.8528 42.3861 25.8818 39.481L25.882 39.4811Z" fill="white"/>
</svg>
