<svg width="64" height="64" viewBox="0 0 64 64" fill="none" xmlns="http://www.w3.org/2000/svg">
<path d="M11.1626 17.0428C11.7442 17.0428 12.3557 16.7908 12.7663 16.3786C13.1615 15.9861 13.4577 15.339 13.4321 14.7749C13.4049 14.1874 13.2127 13.577 12.7663 13.1686C12.3227 12.7627 11.7762 12.5028 11.1626 12.5028C10.5799 12.5028 9.96849 12.7563 9.55682 13.1686C9.16429 13.5622 8.86656 14.2093 8.89106 14.7749C8.91822 15.3597 9.11156 15.9701 9.55682 16.3786C10.0026 16.7877 10.5475 17.0428 11.1626 17.0428Z" fill="white"/>
<path d="M19.1694 17.0428C19.751 17.0428 20.363 16.7908 20.7731 16.3786C21.1683 15.9861 21.4644 15.339 21.4389 14.7749C21.4117 14.1874 21.2189 13.577 20.7731 13.1686C20.3295 12.7627 19.783 12.5028 19.1694 12.5028C18.5878 12.5028 17.9753 12.7563 17.5636 13.1686C17.1711 13.5622 16.8739 14.2093 16.8989 14.7749C16.9266 15.3597 17.1189 15.9701 17.5636 16.3786C18.0084 16.7877 18.5543 17.0428 19.1694 17.0428Z" fill="white"/>
<path d="M27.1788 17.0428C27.7594 17.0428 28.3724 16.7908 28.7831 16.3786C29.1778 15.9861 29.4744 15.339 29.4489 14.7749C29.4212 14.1874 29.2284 13.577 28.7831 13.1686C28.3389 12.7627 27.793 12.5028 27.1788 12.5028C26.5972 12.5028 25.9836 12.7563 25.5736 13.1686C25.18 13.5622 24.8823 14.2093 24.9089 14.7749C24.935 15.3597 25.1283 15.9701 25.5736 16.3786C26.0178 16.7877 26.5637 17.0428 27.1788 17.0428Z" fill="white"/>
<path d="M61.9409 6.59855C42.7171 5.92533 23.5056 5.86142 4.27498 6.20122C1.84838 6.24329 1.44465 9.42354 3.06063 10.4269C2.97115 13.5576 2.90724 16.6867 2.86889 19.8148C2.86889 19.8148 1.95706 19.9266 0.488112 20.2526C-0.187236 20.4007 -0.137701 21.3929 0.488112 21.5687C1.93518 21.9788 2.84599 22.2376 2.84599 22.2376C2.79326 28.4437 2.82309 34.6481 2.90511 40.8574C2.93866 43.3265 2.98766 45.7969 3.02921 48.2627C3.05424 49.7301 3.07821 51.1942 3.10377 52.6616C3.12082 53.7375 2.88646 55.0813 3.24225 56.1151C3.85369 57.8918 5.64117 57.697 7.20808 57.723C9.99519 57.7677 12.7835 57.8077 15.5695 57.8423C26.5738 57.9712 37.5789 58.0346 48.5809 57.9808C52.478 57.9632 57.1016 58.3254 60.1104 55.3268C62.9125 52.5327 63.1452 48.2936 63.3118 44.5792C63.8567 32.4596 62.7574 20.3324 63.559 8.21918C63.6186 7.32386 62.7696 6.62935 61.9409 6.59894L61.9409 6.59855ZM4.83537 10.7092C23.312 10.0828 41.8008 9.8373 60.287 9.83837C60.2161 12.9707 60.2172 16.1024 60.2577 19.2331C49.893 19.4876 39.5245 19.6266 29.1552 19.5936C24.0933 19.5787 19.0286 19.6533 13.9673 19.6682C11.4364 19.6741 8.9054 19.7497 6.37395 19.7928C6.02615 19.7987 5.67623 19.7997 5.32524 19.8013C5.18517 16.7707 5.02111 13.7402 4.83523 10.7091L4.83537 10.7092ZM59.6461 50.133C58.2737 54.9505 53.6149 54.7018 49.4636 54.7412C39.6332 54.8354 8.67495 54.6346 8.08865 54.6261C7.64871 54.6176 7.20877 54.6112 6.76936 54.6043C6.24794 54.4488 5.70095 28.5372 5.43837 22.3838C5.60774 22.3923 5.77765 22.4003 5.94488 22.4099C8.47796 22.5707 11.0143 22.7545 13.55 22.8519C18.7456 23.0501 23.955 23.2178 29.1551 23.221C39.5427 23.2253 49.9278 23.0565 60.3107 22.772C60.3981 27.4442 60.5131 32.1156 60.4993 36.7887C60.487 41.0921 60.8375 45.9469 59.646 50.1327L59.6461 50.133Z" fill="white"/>
<path d="M50.6262 37.0779C48.3908 35.4976 46.269 33.168 43.7966 32.0123C42.897 31.591 42.0863 32.4336 42.4837 33.3236C43.3721 35.314 45.2191 37.0348 46.9656 38.5666C45.4923 39.7341 43.9978 40.8493 42.4767 41.9747C40.5807 43.375 42.2498 46.4897 44.3713 45.2147C46.7574 43.7814 49.0636 41.888 50.9873 39.88C51.8358 38.9932 51.5684 37.7421 50.6262 37.0779L50.6262 37.0779Z" fill="white"/>
<path d="M26.5356 41.9741C25.0145 40.8503 23.5195 39.7333 22.0473 38.5659C23.7927 37.0331 25.6398 35.3117 26.5281 33.3229C26.9255 32.4361 26.118 31.5892 25.2147 32.0116C22.7456 33.1673 20.6183 35.4986 18.3872 37.0772C17.444 37.7414 17.1761 38.9925 18.0256 39.8793C19.9493 41.8873 22.254 43.7807 24.6416 45.214C26.7603 46.4875 28.4343 43.3749 26.5356 41.9741L26.5356 41.9741Z" fill="white"/>
<path d="M37.9845 25.6736C35.8732 30.0415 33.8348 34.4479 31.7608 38.8371C30.3755 41.7654 28.9289 44.6718 27.6458 47.647C27.0376 49.0535 26.2622 50.4463 26.0342 51.9643C25.949 52.5257 26.579 53.0135 27.0445 52.5518C28.0853 51.5196 28.6541 50.1087 29.3423 48.8251C30.8975 45.9299 32.2994 42.9488 33.7507 39.9993C35.8945 35.6532 38.0734 31.321 40.1815 26.9578C40.8893 25.491 38.697 24.1978 37.9845 25.6737L37.9845 25.6736Z" fill="white"/>
</svg>
