<svg width="64" height="64" viewBox="0 0 64 64" fill="none" xmlns="http://www.w3.org/2000/svg">
<g clip-path="url(#clip0_422_2690)">
<path d="M12.4185 17.119C13.0041 17.119 13.6203 16.8654 14.0348 16.4503C14.4311 16.055 14.7298 15.4035 14.7052 14.8355C14.6789 14.244 14.4831 13.6294 14.0348 13.2181C13.587 12.8094 13.0379 12.5477 12.4185 12.5477C11.8329 12.5477 11.2167 12.803 10.8011 13.2181C10.4048 13.6144 10.1071 14.266 10.1323 14.8355C10.1586 15.4243 10.3533 16.0389 10.8011 16.4503C11.2489 16.8616 11.7991 17.119 12.4185 17.119Z" fill="white"/>
<path d="M20.4825 17.119C21.0671 17.119 21.6827 16.8654 22.0973 16.4503C22.4952 16.055 22.7924 15.4035 22.7677 14.8355C22.7414 14.244 22.5457 13.6294 22.0973 13.2181C21.6506 12.8094 21.1004 12.5477 20.4825 12.5477C19.8969 12.5477 19.2791 12.803 18.8651 13.2181C18.4699 13.6144 18.1701 14.266 18.1948 14.8355C18.2227 15.4243 18.4168 16.0389 18.8651 16.4503C19.3129 16.8616 19.8632 17.119 20.4825 17.119Z" fill="white"/>
<path d="M28.5449 17.119C29.1295 17.119 29.7451 16.8654 30.1597 16.4503C30.5577 16.055 30.8564 15.4035 30.8306 14.8355C30.8027 14.244 30.6086 13.6294 30.1597 13.2181C29.713 12.8094 29.1644 12.5477 28.5449 12.5477C27.9593 12.5477 27.3415 12.803 26.9275 13.2181C26.5323 13.6144 26.2336 14.266 26.2572 14.8355C26.2851 15.4243 26.4808 16.0389 26.9275 16.4503C27.3769 16.8621 27.925 17.119 28.5449 17.119Z" fill="white"/>
<path d="M62.3685 6.60268C43.0121 5.92481 23.668 5.86047 4.30463 6.20261C1.86128 6.24497 1.45477 9.44717 3.0819 10.4575C2.9918 13.6092 2.92745 16.7605 2.88829 19.9096C2.88829 19.9096 1.9707 20.0222 0.491079 20.3504C-0.188394 20.4995 -0.138517 21.4986 0.491079 21.6756C1.94813 22.0885 2.86523 22.3492 2.86523 22.3492C2.81214 28.598 2.84217 34.8453 2.92476 41.0974C2.95854 43.5836 3.00788 46.071 3.05025 48.5539C3.07545 50.0314 3.09905 51.5056 3.12533 52.9831C3.14195 54.0664 2.90598 55.4195 3.26476 56.4604C3.87989 58.2494 5.68023 58.0533 7.25742 58.0795C10.0638 58.1245 12.8713 58.1647 15.6766 58.1996C26.7573 58.3294 37.8379 58.3932 48.9158 58.339C52.8398 58.3213 57.4953 58.686 60.5248 55.6667C63.3463 52.8534 63.5806 48.585 63.7484 44.845C64.297 32.6417 63.1901 20.4308 63.9972 8.23394C64.0578 7.33298 63.2019 6.63369 62.368 6.60308L62.3685 6.60268ZM4.86889 10.7417C23.473 10.111 42.0895 9.86379 60.7032 9.86486C60.6319 13.0188 60.633 16.1721 60.6737 19.3244C50.2375 19.5807 39.7975 19.7207 29.3579 19.6875C24.26 19.6724 19.1614 19.7475 14.0653 19.7625C11.5169 19.7684 8.96728 19.8446 6.41946 19.888C6.06926 19.8939 5.71638 19.895 5.36297 19.8966C5.22194 16.8451 5.05621 13.7937 4.86905 10.7416L4.86889 10.7417ZM60.0579 50.4376C58.676 55.2883 53.9851 55.0379 49.8052 55.0776C39.9068 55.1725 8.73496 54.9703 8.14462 54.9618C7.70217 54.9532 7.25867 54.9467 6.81623 54.9398C6.29174 54.7832 5.74044 28.6927 5.47605 22.4969C5.64659 22.5054 5.81767 22.5135 5.98605 22.5231C8.53662 22.6851 11.091 22.8701 13.6448 22.9683C18.8762 23.1677 24.1212 23.3367 29.3576 23.3399C39.8168 23.3442 50.2723 23.1742 60.7282 22.8878C60.8162 27.5922 60.932 32.2958 60.9181 37.0012C60.9057 41.3343 61.2586 46.2226 60.0584 50.4373L60.0579 50.4376Z" fill="white"/>
<path d="M24.3718 48.8229C24.433 49.6876 24.3298 50.8284 24.8738 51.5755C25.421 52.3276 26.3355 52.4712 27.2362 52.5427C29.6954 52.7387 32.1886 52.7672 34.6562 52.7832C36.5969 52.7963 38.4924 52.8673 38.8752 50.6768C39.2629 48.4519 39.2479 46.0931 39.2361 43.8431C39.2241 41.5703 39.1491 39.2533 38.8329 36.9968C38.6262 35.5209 38.0694 33.9096 36.4432 33.3464C35.9422 33.1738 35.4085 33.0958 34.8647 33.0617C35.0905 31.7739 35.1522 30.228 34.9172 28.9937C34.6365 27.5131 32.7383 27.9304 31.5533 27.9342C30.9516 27.9359 30.2151 27.8482 29.6981 28.2022C29.2199 28.5292 29.0664 29.1376 28.9367 29.6485C28.7702 30.298 28.6884 30.9577 28.6722 31.6253C28.6602 32.0979 28.7424 32.532 28.8202 32.9679C28.7822 32.9679 24.7388 33.3097 24.4832 35.1215C24.4252 35.5304 24.5152 35.8259 24.7902 36.0069C24.6962 36.5344 24.6135 37.0648 24.543 37.5973C24.1127 37.6802 23.6828 37.7604 23.2508 37.8236C22.9613 37.8669 23.0283 38.3194 23.3198 38.3042C23.6935 38.2847 24.0748 38.2844 24.4568 38.2917C24.0593 41.7846 24.125 45.345 24.372 48.823L24.3718 48.8229ZM30.1702 31.0542C30.3052 30.6355 30.7064 29.6669 30.7117 29.6479C30.7364 29.6453 32.6634 29.7226 33.0891 29.6759C33.1033 29.8143 33.0279 32.0411 33.0301 33.0399C32.9326 33.0399 30.6476 32.9811 29.6017 32.971C29.7372 32.3107 29.9917 31.6115 30.1702 31.0541L30.1702 31.0542ZM25.833 36.085C26.0205 35.9896 26.1745 35.8269 26.2517 35.5817C26.6175 34.4178 28.7094 34.5344 29.7049 34.5046C31.5272 34.4486 33.4676 34.2058 35.2841 34.3673C36.7695 34.4994 37.2556 35.6445 37.4586 36.8366C35.1026 36.6462 28.1499 36.996 27.0485 37.1448C26.6513 37.1977 26.2576 37.2673 25.8648 37.3402C25.8553 36.9222 25.8453 36.5028 25.833 36.0851L25.833 36.085ZM37.6497 38.7725C37.7542 40.2766 37.7977 41.7842 37.7827 43.2913C37.765 45.1351 37.6647 46.9785 37.483 48.8143C37.424 49.4062 37.499 50.6268 36.9805 51.0586C36.4262 51.5199 34.788 51.2246 34.0698 51.2117C32.1806 51.1762 30.2922 51.1035 28.4064 50.994C27.9344 50.9667 27.3739 50.9956 26.9127 50.8915C26.3882 50.7725 26.2742 50.6181 26.2222 50.1073C26.1282 49.1949 26.0957 48.2707 26.0537 47.3537C25.9167 44.3523 25.9307 41.3474 25.8845 38.345C26.203 38.3587 35.2853 38.6704 37.65 38.7726L37.6497 38.7725Z" fill="white"/>
<path d="M43.658 25.205C42.795 25.4424 41.925 26.2161 41.2103 26.7027C40.6893 27.0574 40.1841 27.4435 39.6493 27.778C39.3786 27.9475 38.9673 28.0692 38.7501 28.3064C37.5536 29.6025 39.5998 30.0256 40.345 29.2766C40.5125 29.0545 41.728 27.7707 42.1654 27.3449C42.7572 26.7708 43.4482 26.19 43.9134 25.5192C44.0216 25.3603 43.8411 25.1544 43.6579 25.2049L43.658 25.205Z" fill="white"/>
<path d="M46.231 30.826C45.1023 30.6598 43.9845 30.5206 42.8453 30.4383C41.6813 30.3542 40.4346 30.1661 39.2741 30.2112C38.0709 30.2571 38.0589 31.9702 39.2741 31.9775C40.4041 31.985 41.5579 31.7882 42.6963 31.7523C43.8389 31.7156 44.9758 31.6806 46.1163 31.6201C46.5698 31.5962 46.7363 30.9001 46.2311 30.826L46.231 30.826Z" fill="white"/>
<path d="M44.6269 36.9382C44.8554 36.9591 45.0377 36.6655 44.9007 36.4903C44.3612 35.8039 43.4462 35.3685 42.7365 34.849C41.8735 34.2159 41.1315 33.5387 40.3776 32.8033C39.5338 31.9814 38.1526 33.3327 39.0643 34.0382C39.9125 34.6932 40.9318 35.2449 41.8863 35.7626C42.709 36.2092 43.6637 36.851 44.6269 36.9382L44.6269 36.9382Z" fill="white"/>
</g>
<defs>
<clipPath id="clip0_422_2690">
<rect width="64" height="64" fill="white"/>
</clipPath>
</defs>
</svg>
